<svg width="1029" height="247" viewBox="0 0 1029 247" fill="none" xmlns="http://www.w3.org/2000/svg">
<path d="M352.6 201C365.8 201 377.4 195.5 384.2 188.2L421.1 211.5C403.8 234.4 379.2 246.2 348.7 246.2C293.8 246.2 262.5 207.4 266.1 157.2C269.7 106.9 307 68.2002 357.8 68.2002C404.7 68.2002 436.7 106.3 433.1 157.2C432.6 164.2 431.6 171.1 429.7 177.4H315.8C320.6 195 334.9 201 352.6 201ZM386.4 139.6C382.6 120.1 368.6 112.9 354.2 112.9C335.9 112.9 323.1 122.3 317.4 139.6H386.4Z" fill="white"/>
<path d="M609.7 77.7002L538.5 246.4H483.9L436.4 77.7002H489.8L515.6 184.6L556.5 77.7002H609.7Z" fill="white"/>
<path d="M774.6 77.5002L763.1 241.5H716.2L717.2 226.1C706.1 238.6 690.2 246.1 669.3 246.1C628.4 246.1 597.3 208.3 600.7 159.4C604.1 110.5 640.6 72.7002 681.4 72.7002C702.3 72.7002 717.2 80.2002 726.6 92.7002L727.6 77.3002H774.5V77.5002H774.6ZM722.1 159.6C723.8 135 709.3 119.6 687.7 119.6C666.1 119.6 649.4 135 647.7 159.6C646 184.2 660.5 199.6 682.1 199.6C703.7 199.6 720.2 184.2 722.1 159.6Z" fill="white"/>
<path d="M980.1 0H1028.2L1011.1 246.2H963L980.1 0Z" fill="white"/>
<path d="M255.6 128.1C251 194.8 200.2 246.1 138.1 246.1H61.0996L66.0996 194.3H141.9C177.1 194.3 203.5 168.6 206.2 128.3C208.9 87.6004 186.4 61.9004 151.1 61.9004H78.5996L83.5996 9.90039H154.8C216.6 10.1004 260.2 61.2004 255.6 128.1Z" fill="white"/>
<path d="M133.8 80.9004L131.9 103H112.6L114.4 80.9004H133.8Z" fill="#FDB515"/>
<path d="M108.4 80.9004L106.6 103H39.2002L41.2002 80.9004H108.4Z" fill="#FDB515"/>
<path d="M0 139.4H112.4L114.5 117.3H2.10001L0 139.4Z" fill="#FDB515"/>
<path d="M9.8002 153.1H29.7002L27.8002 175.2H7.7002L9.8002 153.1Z" fill="#FDB515"/>
<path d="M96.2998 153.1L94.2998 175.2H33.7998L35.6998 153.1H96.2998Z" fill="#FDB515"/>
<path d="M812.362 106.676L802.971 112.208L808.249 121.169L817.64 115.637L812.362 106.676Z" fill="#FDB515"/>
<path d="M805.639 74.0639L796.247 79.5957L801.525 88.5563L810.917 83.0245L805.639 74.0639Z" fill="#FDB515"/>
<path d="M875.8 120.2L876.3 121.1L875.8 120.2Z" fill="#252525"/>
<path d="M961.2 77.7002L907.7 150.2C899.3 136.7 890.9 123.2 882.5 109.7L906.1 77.7002H961.2Z" fill="white"/>
<path d="M951.4 246.2H896.1L875 211.1C885.4 197.9 895.9 184.7 906.3 171.5L951.4 246.2Z" fill="white"/>
<path d="M796.3 79.5L796.1 79.6L786.9 85.1L781.6 76.1L791 70.5L796.2 79.4V79.5H796.3Z" fill="#FDB515"/>
<path d="M828.362 133.392L818.971 138.924L824.249 147.884L833.64 142.353L828.362 133.392Z" fill="#FDB515"/>
<path d="M842.2 64.4004L832.8 69.9004L829.6 64.4004L827.5 61.0004L827.6 60.9004L836.9 55.4004L840.2 60.9004V61.0004L842.2 64.4004Z" fill="#FDB515"/>
<path d="M801.629 88.5757L792.237 94.1074L797.515 103.068L806.907 97.5363L801.629 88.5757Z" fill="#FDB515"/>
<path d="M876.3 121.1L875.7 120.2L875.4 119.8L875.2 119.4L872.2 114.5L870.9 112.3L869.4 109.8L860 115.3L856.7 109.8L854.7 106.3L863.9 100.9L858.5 92L855.5 87C854.4 85.1 853.3 83.3 852.1 81.4C852 81.3 851.9 81.1 851.8 81C851.1 79.8 850.3 78.6 849.6 77.5L847 73.3L837.7 78.8L832.5 70L830.9 71L823.1 75.7L828.5 84.6L825.2 86.5L823.5 87.5L815.8 92.1C812.8 93.9 809.8 95.8 806.8 97.6L806.5 97.7L811.8 106.6L821 101.2L826.3 110.2L817.1 115.6L820.3 121L823.1 125.7L823.6 126.6C825 128.9 826.4 131.2 827.8 133.4C827.8 133.4 827.8 133.4 827.9 133.5L837.3 128L842.6 137L833.2 142.5L834.3 144.4L839.6 153.2H839.5L839.6 153.3L844.1 160.7L780.6 246.2H835.9L859.7 214.2L869 201.7L899.5 160.7L876.3 121.1ZM832.1 119L826.8 110L836.2 104.5L841.5 113.5L832.1 119ZM836.2 104.5L830.9 95.5L840.3 90L845.6 99L836.2 104.5Z" fill="#FDB515"/>
<path d="M822.316 51.9683L812.925 57.5L818.203 66.4607L827.594 60.929L822.316 51.9683Z" fill="#FDB515"/>
<path d="M807.3 97.5L807 97.6L807.3 97.5Z" fill="#FDB515"/>
<path d="M795.164 56.06L785.772 61.5918L791.05 70.5524L800.442 65.0207L795.164 56.06Z" fill="#FDB515"/>
<path d="M876.3 121.1L875.8 120.2L876.3 121.1Z" fill="#FDB515"/>
</svg>
