<svg width="154" height="154" viewBox="0 0 154 154" fill="none" xmlns="http://www.w3.org/2000/svg">
<rect width="154" height="154" rx="35" fill="#0D0D0D"/>
<path d="M47.2004 51.8599L42.5498 54.601L45.1634 59.0414L49.814 56.3002L47.2004 51.8599Z" fill="#FDB515"/>
<path d="M43.8713 35.699L39.2207 38.4402L41.8343 42.8806L46.4849 40.1394L43.8713 35.699Z" fill="#FDB515"/>
<path d="M78.6143 58.5617L78.8619 59.0077L78.6143 58.5617Z" fill="#0D0D0D"/>
<path d="M120.903 37.5013L94.4105 73.428C90.2509 66.7382 86.0913 60.0484 81.9316 53.3586L93.6182 37.5013H120.903Z" fill="white"/>
<path d="M116.052 121H88.6673L78.2188 103.606C83.3688 97.0653 88.5683 90.5241 93.7183 83.9829L116.052 121Z" fill="white"/>
<path d="M39.2461 38.3932L39.1471 38.4427L34.5914 41.1682L31.9668 36.7083L36.6216 33.9333L39.1966 38.3436V38.3932H39.2461Z" fill="#FDB515"/>
<path d="M55.1232 65.0984L50.4727 67.8395L53.0863 72.2799L57.7368 69.5387L55.1232 65.0984Z" fill="#FDB515"/>
<path d="M61.9756 30.9102L57.3208 33.6357L55.7362 30.9102L54.6963 29.2253L54.7458 29.1758L59.3511 26.4503L60.9852 29.1758V29.2253L61.9756 30.9102Z" fill="#FDB515"/>
<path d="M41.886 42.8902L37.2354 45.6314L39.849 50.0718L44.4996 47.3305L41.886 42.8902Z" fill="#FDB515"/>
<path d="M78.8618 59.0077L78.5647 58.5617L78.4161 58.3634L78.3171 58.1652L76.8315 55.7371L76.1878 54.6469L75.445 53.408L70.7901 56.1335L69.156 53.408L68.1656 51.6736L72.7214 48.9977L70.0473 44.5874L68.5618 42.1097C68.017 41.1682 67.4723 40.2762 66.8781 39.3347C66.8286 39.2851 66.779 39.186 66.7295 39.1364C66.3829 38.5418 65.9867 37.9471 65.6401 37.402L64.3526 35.3208L59.7473 38.0462L57.1723 33.6855L56.38 34.181L52.5174 36.5101L55.1915 40.9204L53.5573 41.8619L52.7155 42.3575L48.9025 44.637C47.4169 45.5289 45.9313 46.4705 44.4458 47.3624L44.2972 47.412L46.9217 51.8223L51.4775 49.1464L54.102 53.6063L49.5463 56.2822L51.1309 58.9581L52.5174 61.2872L52.765 61.7332C53.4583 62.8729 54.1516 64.0126 54.8448 65.1028C54.8448 65.1028 54.8449 65.1028 54.8944 65.1524L59.5492 62.4269L62.1737 66.8868L57.5189 69.6122L58.0636 70.5538L60.6882 74.9145H60.6386L60.6882 74.9641L62.9165 78.6311L31.4717 121H58.856L70.6416 105.143L75.2469 98.9483L90.3503 78.6311L78.8618 59.0077ZM56.9742 57.967L54.3496 53.5071L59.0045 50.7817L61.629 55.2415L56.9742 57.967ZM59.0045 50.7817L56.38 46.3218L61.0348 43.5963L63.6593 48.0562L59.0045 50.7817Z" fill="#FDB515"/>
<path d="M52.1291 24.75L47.4785 27.4912L50.0922 31.9316L54.7427 29.1904L52.1291 24.75Z" fill="#FDB515"/>
<path d="M44.6934 47.3129L44.5449 47.3625L44.6934 47.3129Z" fill="#FDB515"/>
<path d="M38.6838 26.7775L34.0332 29.5187L36.6468 33.9591L41.2974 31.2179L38.6838 26.7775Z" fill="#FDB515"/>
<path d="M78.8619 59.0077L78.6143 58.5617L78.8619 59.0077Z" fill="#FDB515"/>
</svg>
