<svg width="127" height="39" viewBox="0 0 127 39" fill="none" xmlns="http://www.w3.org/2000/svg">
<path d="M120.747 1.65694C121.273 9.467 123.955 17.0302 124.429 24.8004C124.509 26.1179 125.789 30.29 125.044 31.4893M125.044 31.4893C124.076 33.0457 119.433 31.5143 118.339 31.1875C112.826 29.5396 103.239 26.5777 97.4465 24.1375M125.044 31.4893C113.247 13.7159 82.6866 -0.534557 67.3138 11.2933M67.3138 11.2933C63.2438 14.4247 60.2383 19.384 58.9274 26.5898C56.4491 40.2142 74.8797 41.8664 77.4726 29.3953C78.9035 22.5097 73.081 15.7448 67.3138 11.2933ZM67.3138 11.2933C65.6573 10.0147 64.0053 8.92694 62.5311 8.08198C44.2536 -2.39381 17.2307 0.860411 0.999965 13.6438" stroke="#FDB515" stroke-width="2" stroke-miterlimit="1.5" stroke-linecap="round" stroke-linejoin="round"/>
</svg>
