<svg width="35" height="35" viewBox="0 0 35 35" fill="none" xmlns="http://www.w3.org/2000/svg">
<path d="M34.9993 18.516C34.9082 19.0172 34.8353 19.5183 34.7259 20.0104C34.0607 22.9719 32.4752 25.2955 29.8873 26.9175C29.3132 27.282 28.7756 27.6647 28.4111 28.257C28.3656 28.3208 28.2745 28.4028 28.2016 28.4028C27.181 28.4119 26.1604 28.4119 25.0669 28.4119C25.1307 27.692 25.1581 27.0177 25.2583 26.3434C25.641 23.7555 26.5705 21.3681 28.0011 19.1812C28.4749 18.4522 28.0193 17.5683 27.1536 17.5683C25.1034 17.5501 23.0531 17.5501 21.0029 17.5683C20.1463 17.5774 19.6907 18.4613 20.1645 19.1812C21.4494 21.1494 22.3424 23.2726 22.7707 25.578C22.9347 26.4345 22.9711 27.3184 23.0531 28.1841C23.0622 28.2479 23.0349 28.3117 23.0258 28.4119C22.0052 28.4119 20.9938 28.4119 19.9823 28.4028C19.9003 28.4028 19.8001 28.3117 19.7545 28.2388C19.4265 27.7194 18.9617 27.3366 18.4423 27.0177C15.5264 25.2499 13.8498 22.6438 13.3213 19.2996C12.4009 13.4951 16.1552 8.59276 20.9209 7.22592C27.0716 5.45814 33.0037 8.98458 34.5892 14.7435C34.7441 15.3085 34.8079 15.9008 34.9173 16.484C34.9355 16.5751 34.9628 16.6571 34.9811 16.7391C34.9993 17.3314 34.9993 17.9237 34.9993 18.516Z" fill="#FDB515"/>
<path d="M0.00976562 8.26465C0.155562 8.27376 0.301359 8.28287 0.447155 8.28287C5.18552 8.28287 9.92389 8.28287 14.6623 8.28287C14.7989 8.28287 14.9265 8.28287 15.0541 8.28287C10.261 13.7229 9.86011 19.4636 13.7237 25.5779C13.669 25.5779 13.5688 25.587 13.4594 25.587C9.32248 25.587 5.19463 25.587 1.05767 25.5961C0.574725 25.5961 0.219347 25.4503 0.00976562 25.0039C0.00976562 19.4272 0.00976562 13.8505 0.00976562 8.26465Z" fill="#FDB515"/>
<path d="M23.5825 0C24.0017 0.264255 24.1201 0.646969 24.111 1.12992C24.0928 2.18694 24.1019 3.24396 24.1019 4.30098C24.1019 4.42855 24.1019 4.54701 24.1019 4.65636C23.3365 4.74748 22.6075 4.80215 21.8785 4.9115C20.6028 5.10286 19.4 5.54025 18.2336 6.10521C18.0422 6.19633 17.8053 6.26011 17.5866 6.26011C11.8641 6.26923 6.13254 6.26923 0.410051 6.26923C0.273367 6.26923 0.136684 6.27834 0 6.28745C0 4.37388 0 2.46031 0 0.546735C0.182245 0.36449 0.36449 0.182245 0.546735 0C8.22836 0 15.91 0 23.5825 0ZM4.81127 3.14373C4.82038 2.54232 4.3921 2.08671 3.80892 2.07759C3.25307 2.06848 2.79746 2.51498 2.78835 3.08905C2.77923 3.69046 3.1984 4.15519 3.77247 4.17341C4.35565 4.18252 4.81127 3.73602 4.81127 3.14373ZM8.91178 3.14373C8.92089 2.54232 8.49261 2.08671 7.90943 2.07759C7.35358 2.06848 6.89797 2.51498 6.88886 3.08905C6.87975 3.69046 7.29891 4.15519 7.87298 4.17341C8.45617 4.18252 8.91178 3.73602 8.91178 3.14373ZM10.9985 3.09816C10.9894 3.69957 11.4176 4.15519 11.9917 4.1643C12.5658 4.17341 13.0123 3.7178 13.0123 3.1255C13.0123 2.52409 12.5749 2.06848 12.0008 2.06848C11.4359 2.07759 10.9985 2.52409 10.9985 3.09816Z" fill="#FDB515"/>
<path d="M23.5823 34.9911C23.0265 34.7633 22.4251 34.6175 21.933 34.2986C20.8486 33.5787 20.3292 32.5035 20.3019 31.2004C20.2928 30.9635 20.3019 30.7266 20.3019 30.4714C22.826 30.4714 25.3319 30.4714 27.8195 30.4714C28.1475 32.7495 26.7351 34.5355 24.8216 34.9273C24.7487 34.9455 24.6758 34.9729 24.6029 35.0002C24.2657 34.9911 23.9286 34.9911 23.5823 34.9911Z" fill="#FDB515"/>
<path d="M0.5565 0C0.374256 0.182245 0.192011 0.36449 0.00976562 0.546735C0.00976562 0.36449 0.00976562 0.182245 0.00976562 0C0.192011 0 0.374256 0 0.5565 0Z" fill="#FDB515"/>
<path d="M22.8535 19.6279C23.6827 19.6279 24.4937 19.6279 25.3138 19.6279C24.9038 20.5756 24.4937 21.5051 24.0837 22.4436C23.6827 21.5142 23.2727 20.5847 22.8535 19.6279Z" fill="#FDB515"/>
</svg>
