<svg width="37" height="38" viewBox="0 0 37 38" fill="none" xmlns="http://www.w3.org/2000/svg">
<path d="M19.3783 11.1064C17.8524 11.123 16.3265 11.1064 14.8006 11.1064C14.2864 11.1064 13.7723 11.123 13.2747 11.123C12.3127 11.123 12.3293 11.123 12.3459 12.0849C12.3459 12.3006 12.4122 12.3669 12.6278 12.3669C13.3576 12.3669 14.0874 12.3669 14.8006 12.3669H14.8172C16.1606 12.3669 17.5041 12.3503 18.8641 12.3503C19.7598 12.3503 19.7432 12.3503 19.7597 11.4713C19.7432 11.1727 19.6602 11.1064 19.3783 11.1064ZM21.551 11.123C20.9539 11.123 20.9539 11.123 20.9539 11.7201C20.9539 12.3503 20.9539 12.3503 21.5842 12.3503C22.1813 12.3503 22.1813 12.3503 22.1813 11.7532C22.1979 11.123 22.1979 11.123 21.551 11.123ZM24.0223 11.123C23.4252 11.123 23.4252 11.123 23.4252 11.7201C23.4252 12.3669 23.4252 12.3669 24.0555 12.3669C24.6526 12.3669 24.6526 12.3669 24.6526 11.7698C24.6526 11.123 24.6526 11.123 24.0223 11.123ZM24.0223 11.123C23.4252 11.123 23.4252 11.123 23.4252 11.7201C23.4252 12.3669 23.4252 12.3669 24.0555 12.3669C24.6526 12.3669 24.6526 12.3669 24.6526 11.7698C24.6526 11.123 24.6526 11.123 24.0223 11.123ZM21.551 11.123C20.9539 11.123 20.9539 11.123 20.9539 11.7201C20.9539 12.3503 20.9539 12.3503 21.5842 12.3503C22.1813 12.3503 22.1813 12.3503 22.1813 11.7532C22.1979 11.123 22.1979 11.123 21.551 11.123ZM19.3783 11.1064C17.8524 11.123 16.3265 11.1064 14.8006 11.1064C14.2864 11.1064 13.7723 11.123 13.2747 11.123C12.3127 11.123 12.3293 11.123 12.3459 12.0849C12.3459 12.3006 12.4122 12.3669 12.6278 12.3669C13.3576 12.3669 14.0874 12.3669 14.8006 12.3669H14.8172C16.1606 12.3669 17.5041 12.3503 18.8641 12.3503C19.7598 12.3503 19.7432 12.3503 19.7597 11.4713C19.7432 11.1727 19.6602 11.1064 19.3783 11.1064ZM19.3783 11.1064C17.8524 11.123 16.3265 11.1064 14.8006 11.1064C14.2864 11.1064 13.7723 11.123 13.2747 11.123C12.3127 11.123 12.3293 11.123 12.3459 12.0849C12.3459 12.3006 12.4122 12.3669 12.6278 12.3669C13.3576 12.3669 14.0874 12.3669 14.8006 12.3669H14.8172C16.1606 12.3669 17.5041 12.3503 18.8641 12.3503C19.7598 12.3503 19.7432 12.3503 19.7597 11.4713C19.7432 11.1727 19.6602 11.1064 19.3783 11.1064ZM19.3783 16.049C17.8524 16.0655 16.3265 16.049 14.8006 16.049C14.2864 16.049 13.7723 16.0655 13.2747 16.0655C12.3127 16.0655 12.3293 16.0656 12.3459 17.0275C12.3459 17.2432 12.4122 17.3095 12.6278 17.3095C13.3576 17.3095 14.0874 17.3095 14.8006 17.3095H14.8172C16.1606 17.3095 17.5041 17.2929 18.8641 17.2929C19.7598 17.2929 19.7432 17.2929 19.7597 16.4139C19.7432 16.1153 19.6602 16.049 19.3783 16.049ZM21.551 11.123C20.9539 11.123 20.9539 11.123 20.9539 11.7201C20.9539 12.3503 20.9539 12.3503 21.5842 12.3503C22.1813 12.3503 22.1813 12.3503 22.1813 11.7532C22.1979 11.123 22.1979 11.123 21.551 11.123ZM21.551 16.049C20.9539 16.049 20.9539 16.049 20.9539 16.6626C20.9539 17.2929 20.9539 17.2929 21.6008 17.2929C22.1979 17.2929 22.1979 17.2929 22.1979 16.6792C22.1979 16.049 22.1979 16.049 21.551 16.049ZM24.0223 11.123C23.4252 11.123 23.4252 11.123 23.4252 11.7201C23.4252 12.3669 23.4252 12.3669 24.0555 12.3669C24.6526 12.3669 24.6526 12.3669 24.6526 11.7698C24.6526 11.123 24.6526 11.123 24.0223 11.123ZM24.0721 16.049C23.4252 16.049 23.4252 16.049 23.4252 16.7124C23.4252 17.2929 23.4252 17.2929 24.0057 17.2929C24.6526 17.2929 24.6526 17.2929 24.6526 16.6295C24.6526 16.049 24.6526 16.049 24.0721 16.049ZM24.0223 11.123C23.4252 11.123 23.4252 11.123 23.4252 11.7201C23.4252 12.3669 23.4252 12.3669 24.0555 12.3669C24.6526 12.3669 24.6526 12.3669 24.6526 11.7698C24.6526 11.123 24.6526 11.123 24.0223 11.123ZM21.551 11.123C20.9539 11.123 20.9539 11.123 20.9539 11.7201C20.9539 12.3503 20.9539 12.3503 21.5842 12.3503C22.1813 12.3503 22.1813 12.3503 22.1813 11.7532C22.1979 11.123 22.1979 11.123 21.551 11.123ZM19.3783 11.1064C17.8524 11.123 16.3265 11.1064 14.8006 11.1064C14.2864 11.1064 13.7723 11.123 13.2747 11.123C12.3127 11.123 12.3293 11.123 12.3459 12.0849C12.3459 12.3006 12.4122 12.3669 12.6278 12.3669C13.3576 12.3669 14.0874 12.3669 14.8006 12.3669H14.8172C16.1606 12.3669 17.5041 12.3503 18.8641 12.3503C19.7598 12.3503 19.7432 12.3503 19.7597 11.4713C19.7432 11.1727 19.6602 11.1064 19.3783 11.1064ZM24.0721 16.049C23.4252 16.049 23.4252 16.049 23.4252 16.7124C23.4252 17.2929 23.4252 17.2929 24.0057 17.2929C24.6526 17.2929 24.6526 17.2929 24.6526 16.6295C24.6526 16.049 24.6526 16.049 24.0721 16.049ZM21.551 16.049C20.9539 16.049 20.9539 16.049 20.9539 16.6626C20.9539 17.2929 20.9539 17.2929 21.6008 17.2929C22.1979 17.2929 22.1979 17.2929 22.1979 16.6792C22.1979 16.049 22.1979 16.049 21.551 16.049ZM19.3783 16.049C17.8524 16.0655 16.3265 16.049 14.8006 16.049C14.2864 16.049 13.7723 16.0655 13.2747 16.0655C12.3127 16.0655 12.3293 16.0656 12.3459 17.0275C12.3459 17.2432 12.4122 17.3095 12.6278 17.3095C13.3576 17.3095 14.0874 17.3095 14.8006 17.3095H14.8172C16.1606 17.3095 17.5041 17.2929 18.8641 17.2929C19.7598 17.2929 19.7432 17.2929 19.7597 16.4139C19.7432 16.1153 19.6602 16.049 19.3783 16.049ZM19.3783 11.1064C17.8524 11.123 16.3265 11.1064 14.8006 11.1064C14.2864 11.1064 13.7723 11.123 13.2747 11.123C12.3127 11.123 12.3293 11.123 12.3459 12.0849C12.3459 12.3006 12.4122 12.3669 12.6278 12.3669C13.3576 12.3669 14.0874 12.3669 14.8006 12.3669H14.8172C16.1606 12.3669 17.5041 12.3503 18.8641 12.3503C19.7598 12.3503 19.7432 12.3503 19.7597 11.4713C19.7432 11.1727 19.6602 11.1064 19.3783 11.1064ZM19.3783 16.049C17.8524 16.0655 16.3265 16.049 14.8006 16.049C14.2864 16.049 13.7723 16.0655 13.2747 16.0655C12.3127 16.0655 12.3293 16.0656 12.3459 17.0275C12.3459 17.2432 12.4122 17.3095 12.6278 17.3095C13.3576 17.3095 14.0874 17.3095 14.8006 17.3095H14.8172C16.1606 17.3095 17.5041 17.2929 18.8641 17.2929C19.7598 17.2929 19.7432 17.2929 19.7597 16.4139C19.7432 16.1153 19.6602 16.049 19.3783 16.049ZM19.3783 20.975C17.8524 20.9916 16.3265 20.975 14.8006 20.975C14.2864 20.975 13.7723 20.9915 13.2747 20.9915C12.3127 20.9915 12.3293 20.9916 12.3459 21.9535C12.3459 22.1692 12.4122 22.2355 12.6278 22.2355C13.3576 22.2355 14.0874 22.2355 14.8006 22.2355H14.8172C16.1606 22.2355 17.5041 22.2189 18.8641 22.2189C19.7598 22.2189 19.7432 22.2189 19.7597 21.3399C19.7432 21.0413 19.6602 20.975 19.3783 20.975ZM21.551 20.9915C20.9539 20.9915 20.9539 20.9916 20.9539 21.5886C20.9539 22.2189 20.9539 22.2189 21.5842 22.2189C22.1813 22.2189 22.1813 22.2189 22.1813 21.6218C22.1979 20.9916 22.1979 20.9915 21.551 20.9915ZM21.551 11.123C20.9539 11.123 20.9539 11.123 20.9539 11.7201C20.9539 12.3503 20.9539 12.3503 21.5842 12.3503C22.1813 12.3503 22.1813 12.3503 22.1813 11.7532C22.1979 11.123 22.1979 11.123 21.551 11.123ZM21.551 16.049C20.9539 16.049 20.9539 16.049 20.9539 16.6626C20.9539 17.2929 20.9539 17.2929 21.6008 17.2929C22.1979 17.2929 22.1979 17.2929 22.1979 16.6792C22.1979 16.049 22.1979 16.049 21.551 16.049ZM24.0555 20.9915C23.4252 20.9915 23.4252 20.9916 23.4252 21.6218C23.4252 22.2189 23.4252 22.2189 24.0223 22.2189C24.6526 22.2189 24.6526 22.2189 24.6526 21.5886C24.6526 20.9916 24.6526 20.9915 24.0555 20.9915ZM24.0223 11.123C23.4252 11.123 23.4252 11.123 23.4252 11.7201C23.4252 12.3669 23.4252 12.3669 24.0555 12.3669C24.6526 12.3669 24.6526 12.3669 24.6526 11.7698C24.6526 11.123 24.6526 11.123 24.0223 11.123ZM24.0721 16.049C23.4252 16.049 23.4252 16.049 23.4252 16.7124C23.4252 17.2929 23.4252 17.2929 24.0057 17.2929C24.6526 17.2929 24.6526 17.2929 24.6526 16.6295C24.6526 16.049 24.6526 16.049 24.0721 16.049ZM24.0555 20.9915C23.4252 20.9915 23.4252 20.9916 23.4252 21.6218C23.4252 22.2189 23.4252 22.2189 24.0223 22.2189C24.6526 22.2189 24.6526 22.2189 24.6526 21.5886C24.6526 20.9916 24.6526 20.9915 24.0555 20.9915ZM21.551 20.9915C20.9539 20.9915 20.9539 20.9916 20.9539 21.5886C20.9539 22.2189 20.9539 22.2189 21.5842 22.2189C22.1813 22.2189 22.1813 22.2189 22.1813 21.6218C22.1979 20.9916 22.1979 20.9915 21.551 20.9915ZM19.3783 20.975C17.8524 20.9916 16.3265 20.975 14.8006 20.975C14.2864 20.975 13.7723 20.9915 13.2747 20.9915C12.3127 20.9915 12.3293 20.9916 12.3459 21.9535C12.3459 22.1692 12.4122 22.2355 12.6278 22.2355C13.3576 22.2355 14.0874 22.2355 14.8006 22.2355H14.8172C16.1606 22.2355 17.5041 22.2189 18.8641 22.2189C19.7598 22.2189 19.7432 22.2189 19.7597 21.3399C19.7432 21.0413 19.6602 20.975 19.3783 20.975ZM24.0721 16.049C23.4252 16.049 23.4252 16.049 23.4252 16.7124C23.4252 17.2929 23.4252 17.2929 24.0057 17.2929C24.6526 17.2929 24.6526 17.2929 24.6526 16.6295C24.6526 16.049 24.6526 16.049 24.0721 16.049ZM21.551 16.049C20.9539 16.049 20.9539 16.049 20.9539 16.6626C20.9539 17.2929 20.9539 17.2929 21.6008 17.2929C22.1979 17.2929 22.1979 17.2929 22.1979 16.6792C22.1979 16.049 22.1979 16.049 21.551 16.049ZM19.3783 16.049C17.8524 16.0655 16.3265 16.049 14.8006 16.049C14.2864 16.049 13.7723 16.0655 13.2747 16.0655C12.3127 16.0655 12.3293 16.0656 12.3459 17.0275C12.3459 17.2432 12.4122 17.3095 12.6278 17.3095C13.3576 17.3095 14.0874 17.3095 14.8006 17.3095H14.8172C16.1606 17.3095 17.5041 17.2929 18.8641 17.2929C19.7598 17.2929 19.7432 17.2929 19.7597 16.4139C19.7432 16.1153 19.6602 16.049 19.3783 16.049ZM24.0223 11.123C23.4252 11.123 23.4252 11.123 23.4252 11.7201C23.4252 12.3669 23.4252 12.3669 24.0555 12.3669C24.6526 12.3669 24.6526 12.3669 24.6526 11.7698C24.6526 11.123 24.6526 11.123 24.0223 11.123ZM21.551 11.123C20.9539 11.123 20.9539 11.123 20.9539 11.7201C20.9539 12.3503 20.9539 12.3503 21.5842 12.3503C22.1813 12.3503 22.1813 12.3503 22.1813 11.7532C22.1979 11.123 22.1979 11.123 21.551 11.123ZM19.3783 11.1064C17.8524 11.123 16.3265 11.1064 14.8006 11.1064C14.2864 11.1064 13.7723 11.123 13.2747 11.123C12.3127 11.123 12.3293 11.123 12.3459 12.0849C12.3459 12.3006 12.4122 12.3669 12.6278 12.3669C13.3576 12.3669 14.0874 12.3669 14.8006 12.3669H14.8172C16.1606 12.3669 17.5041 12.3503 18.8641 12.3503C19.7598 12.3503 19.7432 12.3503 19.7597 11.4713C19.7432 11.1727 19.6602 11.1064 19.3783 11.1064ZM19.3783 11.1064C17.8524 11.123 16.3265 11.1064 14.8006 11.1064C14.2864 11.1064 13.7723 11.123 13.2747 11.123C12.3127 11.123 12.3293 11.123 12.3459 12.0849C12.3459 12.3006 12.4122 12.3669 12.6278 12.3669C13.3576 12.3669 14.0874 12.3669 14.8006 12.3669H14.8172C16.1606 12.3669 17.5041 12.3503 18.8641 12.3503C19.7598 12.3503 19.7432 12.3503 19.7597 11.4713C19.7432 11.1727 19.6602 11.1064 19.3783 11.1064ZM19.3783 16.049C17.8524 16.0655 16.3265 16.049 14.8006 16.049C14.2864 16.049 13.7723 16.0655 13.2747 16.0655C12.3127 16.0655 12.3293 16.0656 12.3459 17.0275C12.3459 17.2432 12.4122 17.3095 12.6278 17.3095C13.3576 17.3095 14.0874 17.3095 14.8006 17.3095H14.8172C16.1606 17.3095 17.5041 17.2929 18.8641 17.2929C19.7598 17.2929 19.7432 17.2929 19.7597 16.4139C19.7432 16.1153 19.6602 16.049 19.3783 16.049ZM19.3783 20.975C17.8524 20.9916 16.3265 20.975 14.8006 20.975C14.2864 20.975 13.7723 20.9915 13.2747 20.9915C12.3127 20.9915 12.3293 20.9916 12.3459 21.9535C12.3459 22.1692 12.4122 22.2355 12.6278 22.2355C13.3576 22.2355 14.0874 22.2355 14.8006 22.2355H14.8172C16.1606 22.2355 17.5041 22.2189 18.8641 22.2189C19.7598 22.2189 19.7432 22.2189 19.7597 21.3399C19.7432 21.0413 19.6602 20.975 19.3783 20.975ZM21.551 20.9915C20.9539 20.9915 20.9539 20.9916 20.9539 21.5886C20.9539 22.2189 20.9539 22.2189 21.5842 22.2189C22.1813 22.2189 22.1813 22.2189 22.1813 21.6218C22.1979 20.9916 22.1979 20.9915 21.551 20.9915ZM21.551 11.123C20.9539 11.123 20.9539 11.123 20.9539 11.7201C20.9539 12.3503 20.9539 12.3503 21.5842 12.3503C22.1813 12.3503 22.1813 12.3503 22.1813 11.7532C22.1979 11.123 22.1979 11.123 21.551 11.123ZM21.551 16.049C20.9539 16.049 20.9539 16.049 20.9539 16.6626C20.9539 17.2929 20.9539 17.2929 21.6008 17.2929C22.1979 17.2929 22.1979 17.2929 22.1979 16.6792C22.1979 16.049 22.1979 16.049 21.551 16.049ZM24.0555 20.9915C23.4252 20.9915 23.4252 20.9916 23.4252 21.6218C23.4252 22.2189 23.4252 22.2189 24.0223 22.2189C24.6526 22.2189 24.6526 22.2189 24.6526 21.5886C24.6526 20.9916 24.6526 20.9915 24.0555 20.9915ZM24.0223 11.123C23.4252 11.123 23.4252 11.123 23.4252 11.7201C23.4252 12.3669 23.4252 12.3669 24.0555 12.3669C24.6526 12.3669 24.6526 12.3669 24.6526 11.7698C24.6526 11.123 24.6526 11.123 24.0223 11.123ZM24.0721 16.049C23.4252 16.049 23.4252 16.049 23.4252 16.7124C23.4252 17.2929 23.4252 17.2929 24.0057 17.2929C24.6526 17.2929 24.6526 17.2929 24.6526 16.6295C24.6526 16.049 24.6526 16.049 24.0721 16.049ZM24.0555 20.9915C23.4252 20.9915 23.4252 20.9916 23.4252 21.6218C23.4252 22.2189 23.4252 22.2189 24.0223 22.2189C24.6526 22.2189 24.6526 22.2189 24.6526 21.5886C24.6526 20.9916 24.6526 20.9915 24.0555 20.9915ZM21.551 20.9915C20.9539 20.9915 20.9539 20.9916 20.9539 21.5886C20.9539 22.2189 20.9539 22.2189 21.5842 22.2189C22.1813 22.2189 22.1813 22.2189 22.1813 21.6218C22.1979 20.9916 22.1979 20.9915 21.551 20.9915ZM19.3783 20.975C17.8524 20.9916 16.3265 20.975 14.8006 20.975C14.2864 20.975 13.7723 20.9915 13.2747 20.9915C12.3127 20.9915 12.3293 20.9916 12.3459 21.9535C12.3459 22.1692 12.4122 22.2355 12.6278 22.2355C13.3576 22.2355 14.0874 22.2355 14.8006 22.2355H14.8172C16.1606 22.2355 17.5041 22.2189 18.8641 22.2189C19.7598 22.2189 19.7432 22.2189 19.7597 21.3399C19.7432 21.0413 19.6602 20.975 19.3783 20.975ZM24.0721 16.049C23.4252 16.049 23.4252 16.049 23.4252 16.7124C23.4252 17.2929 23.4252 17.2929 24.0057 17.2929C24.6526 17.2929 24.6526 17.2929 24.6526 16.6295C24.6526 16.049 24.6526 16.049 24.0721 16.049ZM21.551 16.049C20.9539 16.049 20.9539 16.049 20.9539 16.6626C20.9539 17.2929 20.9539 17.2929 21.6008 17.2929C22.1979 17.2929 22.1979 17.2929 22.1979 16.6792C22.1979 16.049 22.1979 16.049 21.551 16.049ZM19.3783 16.049C17.8524 16.0655 16.3265 16.049 14.8006 16.049C14.2864 16.049 13.7723 16.0655 13.2747 16.0655C12.3127 16.0655 12.3293 16.0656 12.3459 17.0275C12.3459 17.2432 12.4122 17.3095 12.6278 17.3095C13.3576 17.3095 14.0874 17.3095 14.8006 17.3095H14.8172C16.1606 17.3095 17.5041 17.2929 18.8641 17.2929C19.7598 17.2929 19.7432 17.2929 19.7597 16.4139C19.7432 16.1153 19.6602 16.049 19.3783 16.049ZM24.0223 11.123C23.4252 11.123 23.4252 11.123 23.4252 11.7201C23.4252 12.3669 23.4252 12.3669 24.0555 12.3669C24.6526 12.3669 24.6526 12.3669 24.6526 11.7698C24.6526 11.123 24.6526 11.123 24.0223 11.123ZM21.551 11.123C20.9539 11.123 20.9539 11.123 20.9539 11.7201C20.9539 12.3503 20.9539 12.3503 21.5842 12.3503C22.1813 12.3503 22.1813 12.3503 22.1813 11.7532C22.1979 11.123 22.1979 11.123 21.551 11.123ZM19.3783 11.1064C17.8524 11.123 16.3265 11.1064 14.8006 11.1064C14.2864 11.1064 13.7723 11.123 13.2747 11.123C12.3127 11.123 12.3293 11.123 12.3459 12.0849C12.3459 12.3006 12.4122 12.3669 12.6278 12.3669C13.3576 12.3669 14.0874 12.3669 14.8006 12.3669H14.8172C16.1606 12.3669 17.5041 12.3503 18.8641 12.3503C19.7598 12.3503 19.7432 12.3503 19.7597 11.4713C19.7432 11.1727 19.6602 11.1064 19.3783 11.1064ZM19.3783 11.1064C17.8524 11.123 16.3265 11.1064 14.8006 11.1064C14.2864 11.1064 13.7723 11.123 13.2747 11.123C12.3127 11.123 12.3293 11.123 12.3459 12.0849C12.3459 12.3006 12.4122 12.3669 12.6278 12.3669C13.3576 12.3669 14.0874 12.3669 14.8006 12.3669H14.8172C16.1606 12.3669 17.5041 12.3503 18.8641 12.3503C19.7598 12.3503 19.7432 12.3503 19.7597 11.4713C19.7432 11.1727 19.6602 11.1064 19.3783 11.1064ZM19.3783 16.049C17.8524 16.0655 16.3265 16.049 14.8006 16.049C14.2864 16.049 13.7723 16.0655 13.2747 16.0655C12.3127 16.0655 12.3293 16.0656 12.3459 17.0275C12.3459 17.2432 12.4122 17.3095 12.6278 17.3095C13.3576 17.3095 14.0874 17.3095 14.8006 17.3095H14.8172C16.1606 17.3095 17.5041 17.2929 18.8641 17.2929C19.7598 17.2929 19.7432 17.2929 19.7597 16.4139C19.7432 16.1153 19.6602 16.049 19.3783 16.049ZM19.3783 20.975C17.8524 20.9916 16.3265 20.975 14.8006 20.975C14.2864 20.975 13.7723 20.9915 13.2747 20.9915C12.3127 20.9915 12.3293 20.9916 12.3459 21.9535C12.3459 22.1692 12.4122 22.2355 12.6278 22.2355C13.3576 22.2355 14.0874 22.2355 14.8006 22.2355H14.8172C16.1606 22.2355 17.5041 22.2189 18.8641 22.2189C19.7598 22.2189 19.7432 22.2189 19.7597 21.3399C19.7432 21.0413 19.6602 20.975 19.3783 20.975ZM21.551 20.9915C20.9539 20.9915 20.9539 20.9916 20.9539 21.5886C20.9539 22.2189 20.9539 22.2189 21.5842 22.2189C22.1813 22.2189 22.1813 22.2189 22.1813 21.6218C22.1979 20.9916 22.1979 20.9915 21.551 20.9915ZM21.551 11.123C20.9539 11.123 20.9539 11.123 20.9539 11.7201C20.9539 12.3503 20.9539 12.3503 21.5842 12.3503C22.1813 12.3503 22.1813 12.3503 22.1813 11.7532C22.1979 11.123 22.1979 11.123 21.551 11.123ZM21.551 16.049C20.9539 16.049 20.9539 16.049 20.9539 16.6626C20.9539 17.2929 20.9539 17.2929 21.6008 17.2929C22.1979 17.2929 22.1979 17.2929 22.1979 16.6792C22.1979 16.049 22.1979 16.049 21.551 16.049ZM24.0555 20.9915C23.4252 20.9915 23.4252 20.9916 23.4252 21.6218C23.4252 22.2189 23.4252 22.2189 24.0223 22.2189C24.6526 22.2189 24.6526 22.2189 24.6526 21.5886C24.6526 20.9916 24.6526 20.9915 24.0555 20.9915ZM24.0223 11.123C23.4252 11.123 23.4252 11.123 23.4252 11.7201C23.4252 12.3669 23.4252 12.3669 24.0555 12.3669C24.6526 12.3669 24.6526 12.3669 24.6526 11.7698C24.6526 11.123 24.6526 11.123 24.0223 11.123ZM24.0721 16.049C23.4252 16.049 23.4252 16.049 23.4252 16.7124C23.4252 17.2929 23.4252 17.2929 24.0057 17.2929C24.6526 17.2929 24.6526 17.2929 24.6526 16.6295C24.6526 16.049 24.6526 16.049 24.0721 16.049ZM24.0555 20.9915C23.4252 20.9915 23.4252 20.9916 23.4252 21.6218C23.4252 22.2189 23.4252 22.2189 24.0223 22.2189C24.6526 22.2189 24.6526 22.2189 24.6526 21.5886C24.6526 20.9916 24.6526 20.9915 24.0555 20.9915ZM21.551 20.9915C20.9539 20.9915 20.9539 20.9916 20.9539 21.5886C20.9539 22.2189 20.9539 22.2189 21.5842 22.2189C22.1813 22.2189 22.1813 22.2189 22.1813 21.6218C22.1979 20.9916 22.1979 20.9915 21.551 20.9915ZM19.3783 20.975C17.8524 20.9916 16.3265 20.975 14.8006 20.975C14.2864 20.975 13.7723 20.9915 13.2747 20.9915C12.3127 20.9915 12.3293 20.9916 12.3459 21.9535C12.3459 22.1692 12.4122 22.2355 12.6278 22.2355C13.3576 22.2355 14.0874 22.2355 14.8006 22.2355H14.8172C16.1606 22.2355 17.5041 22.2189 18.8641 22.2189C19.7598 22.2189 19.7432 22.2189 19.7597 21.3399C19.7432 21.0413 19.6602 20.975 19.3783 20.975ZM24.0721 16.049C23.4252 16.049 23.4252 16.049 23.4252 16.7124C23.4252 17.2929 23.4252 17.2929 24.0057 17.2929C24.6526 17.2929 24.6526 17.2929 24.6526 16.6295C24.6526 16.049 24.6526 16.049 24.0721 16.049ZM21.551 16.049C20.9539 16.049 20.9539 16.049 20.9539 16.6626C20.9539 17.2929 20.9539 17.2929 21.6008 17.2929C22.1979 17.2929 22.1979 17.2929 22.1979 16.6792C22.1979 16.049 22.1979 16.049 21.551 16.049ZM19.3783 16.049C17.8524 16.0655 16.3265 16.049 14.8006 16.049C14.2864 16.049 13.7723 16.0655 13.2747 16.0655C12.3127 16.0655 12.3293 16.0656 12.3459 17.0275C12.3459 17.2432 12.4122 17.3095 12.6278 17.3095C13.3576 17.3095 14.0874 17.3095 14.8006 17.3095H14.8172C16.1606 17.3095 17.5041 17.2929 18.8641 17.2929C19.7598 17.2929 19.7432 17.2929 19.7597 16.4139C19.7432 16.1153 19.6602 16.049 19.3783 16.049ZM24.0223 11.123C23.4252 11.123 23.4252 11.123 23.4252 11.7201C23.4252 12.3669 23.4252 12.3669 24.0555 12.3669C24.6526 12.3669 24.6526 12.3669 24.6526 11.7698C24.6526 11.123 24.6526 11.123 24.0223 11.123ZM21.551 11.123C20.9539 11.123 20.9539 11.123 20.9539 11.7201C20.9539 12.3503 20.9539 12.3503 21.5842 12.3503C22.1813 12.3503 22.1813 12.3503 22.1813 11.7532C22.1979 11.123 22.1979 11.123 21.551 11.123ZM19.3783 11.1064C17.8524 11.123 16.3265 11.1064 14.8006 11.1064C14.2864 11.1064 13.7723 11.123 13.2747 11.123C12.3127 11.123 12.3293 11.123 12.3459 12.0849C12.3459 12.3006 12.4122 12.3669 12.6278 12.3669C13.3576 12.3669 14.0874 12.3669 14.8006 12.3669H14.8172C16.1606 12.3669 17.5041 12.3503 18.8641 12.3503C19.7598 12.3503 19.7432 12.3503 19.7597 11.4713C19.7432 11.1727 19.6602 11.1064 19.3783 11.1064ZM19.3783 11.1064C17.8524 11.123 16.3265 11.1064 14.8006 11.1064C14.2864 11.1064 13.7723 11.123 13.2747 11.123C12.3127 11.123 12.3293 11.123 12.3459 12.0849C12.3459 12.3006 12.4122 12.3669 12.6278 12.3669C13.3576 12.3669 14.0874 12.3669 14.8006 12.3669H14.8172C16.1606 12.3669 17.5041 12.3503 18.8641 12.3503C19.7598 12.3503 19.7432 12.3503 19.7597 11.4713C19.7432 11.1727 19.6602 11.1064 19.3783 11.1064ZM19.3783 16.049C17.8524 16.0655 16.3265 16.049 14.8006 16.049C14.2864 16.049 13.7723 16.0655 13.2747 16.0655C12.3127 16.0655 12.3293 16.0656 12.3459 17.0275C12.3459 17.2432 12.4122 17.3095 12.6278 17.3095C13.3576 17.3095 14.0874 17.3095 14.8006 17.3095H14.8172C16.1606 17.3095 17.5041 17.2929 18.8641 17.2929C19.7598 17.2929 19.7432 17.2929 19.7597 16.4139C19.7432 16.1153 19.6602 16.049 19.3783 16.049ZM19.3783 20.975C17.8524 20.9916 16.3265 20.975 14.8006 20.975C14.2864 20.975 13.7723 20.9915 13.2747 20.9915C12.3127 20.9915 12.3293 20.9916 12.3459 21.9535C12.3459 22.1692 12.4122 22.2355 12.6278 22.2355C13.3576 22.2355 14.0874 22.2355 14.8006 22.2355H14.8172C16.1606 22.2355 17.5041 22.2189 18.8641 22.2189C19.7598 22.2189 19.7432 22.2189 19.7597 21.3399C19.7432 21.0413 19.6602 20.975 19.3783 20.975ZM21.551 20.9915C20.9539 20.9915 20.9539 20.9916 20.9539 21.5886C20.9539 22.2189 20.9539 22.2189 21.5842 22.2189C22.1813 22.2189 22.1813 22.2189 22.1813 21.6218C22.1979 20.9916 22.1979 20.9915 21.551 20.9915ZM21.551 11.123C20.9539 11.123 20.9539 11.123 20.9539 11.7201C20.9539 12.3503 20.9539 12.3503 21.5842 12.3503C22.1813 12.3503 22.1813 12.3503 22.1813 11.7532C22.1979 11.123 22.1979 11.123 21.551 11.123ZM21.551 16.049C20.9539 16.049 20.9539 16.049 20.9539 16.6626C20.9539 17.2929 20.9539 17.2929 21.6008 17.2929C22.1979 17.2929 22.1979 17.2929 22.1979 16.6792C22.1979 16.049 22.1979 16.049 21.551 16.049ZM24.0555 20.9915C23.4252 20.9915 23.4252 20.9916 23.4252 21.6218C23.4252 22.2189 23.4252 22.2189 24.0223 22.2189C24.6526 22.2189 24.6526 22.2189 24.6526 21.5886C24.6526 20.9916 24.6526 20.9915 24.0555 20.9915ZM24.0223 11.123C23.4252 11.123 23.4252 11.123 23.4252 11.7201C23.4252 12.3669 23.4252 12.3669 24.0555 12.3669C24.6526 12.3669 24.6526 12.3669 24.6526 11.7698C24.6526 11.123 24.6526 11.123 24.0223 11.123ZM24.0721 16.049C23.4252 16.049 23.4252 16.049 23.4252 16.7124C23.4252 17.2929 23.4252 17.2929 24.0057 17.2929C24.6526 17.2929 24.6526 17.2929 24.6526 16.6295C24.6526 16.049 24.6526 16.049 24.0721 16.049ZM24.0555 20.9915C23.4252 20.9915 23.4252 20.9916 23.4252 21.6218C23.4252 22.2189 23.4252 22.2189 24.0223 22.2189C24.6526 22.2189 24.6526 22.2189 24.6526 21.5886C24.6526 20.9916 24.6526 20.9915 24.0555 20.9915ZM21.551 20.9915C20.9539 20.9915 20.9539 20.9916 20.9539 21.5886C20.9539 22.2189 20.9539 22.2189 21.5842 22.2189C22.1813 22.2189 22.1813 22.2189 22.1813 21.6218C22.1979 20.9916 22.1979 20.9915 21.551 20.9915ZM19.3783 20.975C17.8524 20.9916 16.3265 20.975 14.8006 20.975C14.2864 20.975 13.7723 20.9915 13.2747 20.9915C12.3127 20.9915 12.3293 20.9916 12.3459 21.9535C12.3459 22.1692 12.4122 22.2355 12.6278 22.2355C13.3576 22.2355 14.0874 22.2355 14.8006 22.2355H14.8172C16.1606 22.2355 17.5041 22.2189 18.8641 22.2189C19.7598 22.2189 19.7432 22.2189 19.7597 21.3399C19.7432 21.0413 19.6602 20.975 19.3783 20.975ZM24.0721 16.049C23.4252 16.049 23.4252 16.049 23.4252 16.7124C23.4252 17.2929 23.4252 17.2929 24.0057 17.2929C24.6526 17.2929 24.6526 17.2929 24.6526 16.6295C24.6526 16.049 24.6526 16.049 24.0721 16.049ZM21.551 16.049C20.9539 16.049 20.9539 16.049 20.9539 16.6626C20.9539 17.2929 20.9539 17.2929 21.6008 17.2929C22.1979 17.2929 22.1979 17.2929 22.1979 16.6792C22.1979 16.049 22.1979 16.049 21.551 16.049ZM19.3783 16.049C17.8524 16.0655 16.3265 16.049 14.8006 16.049C14.2864 16.049 13.7723 16.0655 13.2747 16.0655C12.3127 16.0655 12.3293 16.0656 12.3459 17.0275C12.3459 17.2432 12.4122 17.3095 12.6278 17.3095C13.3576 17.3095 14.0874 17.3095 14.8006 17.3095H14.8172C16.1606 17.3095 17.5041 17.2929 18.8641 17.2929C19.7598 17.2929 19.7432 17.2929 19.7597 16.4139C19.7432 16.1153 19.6602 16.049 19.3783 16.049ZM24.0223 11.123C23.4252 11.123 23.4252 11.123 23.4252 11.7201C23.4252 12.3669 23.4252 12.3669 24.0555 12.3669C24.6526 12.3669 24.6526 12.3669 24.6526 11.7698C24.6526 11.123 24.6526 11.123 24.0223 11.123ZM21.551 11.123C20.9539 11.123 20.9539 11.123 20.9539 11.7201C20.9539 12.3503 20.9539 12.3503 21.5842 12.3503C22.1813 12.3503 22.1813 12.3503 22.1813 11.7532C22.1979 11.123 22.1979 11.123 21.551 11.123ZM19.3783 11.1064C17.8524 11.123 16.3265 11.1064 14.8006 11.1064C14.2864 11.1064 13.7723 11.123 13.2747 11.123C12.3127 11.123 12.3293 11.123 12.3459 12.0849C12.3459 12.3006 12.4122 12.3669 12.6278 12.3669C13.3576 12.3669 14.0874 12.3669 14.8006 12.3669H14.8172C16.1606 12.3669 17.5041 12.3503 18.8641 12.3503C19.7598 12.3503 19.7432 12.3503 19.7597 11.4713C19.7432 11.1727 19.6602 11.1064 19.3783 11.1064ZM36.9261 27.1781C36.6773 26.1498 35.7983 25.3868 34.7865 25.3039C33.6587 25.2209 32.6635 25.818 32.2489 26.8464C32.1826 27.0122 32.1494 27.1615 31.9006 27.1449C29.7776 27.1283 27.6546 27.1283 25.5482 27.1449C25.3326 27.1449 25.2994 27.0786 25.2994 26.8795C25.316 26.2327 25.316 25.6024 25.2994 24.9556C25.2994 24.7565 25.3326 24.6902 25.5482 24.657C26.5102 24.5243 27.1405 23.7614 27.1405 22.7994C27.1405 22.3018 27.157 21.8043 27.1405 21.2901C27.1239 21.0413 27.1902 20.9584 27.4556 20.975C28.4176 20.9916 29.3795 20.975 30.3415 20.975C30.922 20.975 31.5025 20.975 32.0665 20.8589C35.3339 20.1457 37.3739 17.2431 36.9427 13.8928C36.5281 10.7083 33.3767 8.25361 30.1923 8.68484C29.8771 8.7346 29.8108 8.63508 29.7444 8.36971C27.9366 2.26611 21.5013 -1.29985 15.3645 0.441668C12.2961 1.30413 9.9575 3.14516 8.34867 5.89842C8.23257 6.11403 8.11647 6.21355 7.8511 6.19696C7.37011 6.16379 6.87253 6.18038 6.39154 6.24672C3.02461 6.67795 0.28794 9.54731 0.0225659 12.964C-0.309151 17.2929 3.05778 20.9584 7.38669 20.975C8.11647 20.975 8.84625 20.9916 9.57603 20.975C9.82482 20.975 9.87457 21.0413 9.87457 21.2735C9.85799 21.7711 9.87457 22.2687 9.87457 22.7828C9.87457 23.778 10.5048 24.5243 11.5 24.6736C11.7156 24.7068 11.7322 24.7897 11.7322 24.9556C11.7322 25.5858 11.7156 26.2161 11.7322 26.8464C11.7322 27.0952 11.6824 27.1615 11.4171 27.1615C9.34382 27.1449 7.25401 27.1449 5.18078 27.1615C4.94857 27.1615 4.86564 27.0951 4.78271 26.8795C4.33489 25.7185 3.12413 25.0883 1.94653 25.3702C0.75235 25.6522 -0.0106058 26.6473 0.0225659 27.8913C0.0557377 29.0191 0.901621 29.9977 2.07922 30.2133C3.19047 30.4289 4.36806 29.7655 4.79929 28.6542C4.88222 28.4386 4.98174 28.3723 5.21394 28.3723C6.39154 28.3888 7.55255 28.3723 8.71356 28.3723C9.89116 28.3723 11.0853 28.3723 12.2629 28.3723C12.7605 28.3723 12.9761 28.1566 12.9927 27.6425C12.9927 26.9625 12.9927 26.2824 12.9927 25.6024C12.9927 24.657 12.9927 24.6736 13.9215 24.6736C14.1703 24.6736 14.2367 24.74 14.2367 24.9887C14.2201 26.4151 14.2201 27.8415 14.2367 29.2679C14.2367 29.5664 14.1537 29.6162 13.8718 29.6162C12.379 29.5996 10.8863 29.5996 9.39358 29.6162C8.87942 29.6162 8.68039 29.8318 8.66381 30.346C8.66381 30.7938 8.64722 31.2416 8.66381 31.6894C8.68039 32.0211 8.59746 32.1704 8.28232 32.3031C7.22083 32.7509 6.62375 33.8954 6.83936 34.9734C7.05498 36.0847 7.98379 36.9472 9.04528 37.0135C10.2395 37.0964 11.2844 36.3998 11.6327 35.3052C11.981 34.2105 11.5663 32.9665 10.538 32.469C9.94092 32.187 9.80823 31.8387 9.89116 31.2748C9.89116 31.2416 9.89116 31.1919 9.89116 31.1587C9.8414 30.8933 9.97409 30.8436 10.2063 30.8601C11.6824 30.8767 13.1586 30.8601 14.6347 30.8601C15.2484 30.8601 15.4308 30.6611 15.4308 30.0474C15.4308 28.3723 15.4308 26.6805 15.4308 25.0053C15.4308 24.7565 15.4972 24.6902 15.746 24.6902C16.3431 24.7068 16.9567 24.7068 17.5538 24.6902C17.8524 24.6736 17.9021 24.7731 17.9021 25.0551C17.8855 26.9127 17.8855 28.7537 17.9021 30.6114C17.9021 30.8436 17.8524 30.9597 17.6202 31.0592C16.4923 31.507 15.8455 32.6846 16.0943 33.8124C16.3596 35.0232 17.3382 35.8193 18.5656 35.8193C19.7432 35.8027 20.7383 34.9568 20.9539 33.7627C21.1695 32.6348 20.5061 31.4904 19.3617 31.0426C19.1958 30.9762 19.1295 30.9099 19.1295 30.7275C19.1461 28.8201 19.1295 26.8961 19.1295 24.9887C19.1295 24.7897 19.1792 24.7234 19.3783 24.7234C20.0085 24.74 20.6388 24.74 21.2691 24.7234C21.5344 24.7068 21.6008 24.7897 21.6008 25.0551C21.5842 26.7303 21.6008 28.422 21.6008 30.0972C21.6008 30.6777 21.7998 30.8767 22.3803 30.8933C23.6574 30.8933 24.9511 30.8933 26.2282 30.8933C27.1405 30.8933 27.1239 30.8933 27.157 31.789C27.157 32.1041 27.0575 32.2202 26.7922 32.3363C25.5814 32.8504 25.0175 34.1773 25.4321 35.4047C25.8468 36.6154 27.1073 37.2955 28.3512 36.9969C29.3795 36.7481 30.1425 35.8525 30.2254 34.8573C30.3084 33.7295 29.7113 32.7178 28.6829 32.3197C28.4839 32.2368 28.3678 32.1704 28.3844 31.9216C28.401 31.4406 28.3844 30.9431 28.3844 30.4621C28.3844 29.8816 28.1854 29.6825 27.6049 29.6825C26.1287 29.6825 24.6526 29.6825 23.1764 29.6825C22.9111 29.6825 22.8281 29.6328 22.8281 29.3508C22.8447 28.1235 22.8281 26.8795 22.8281 25.6522C22.8281 24.7234 22.8281 24.74 23.7735 24.74C24.0223 24.74 24.0721 24.8063 24.0721 25.0385C24.0555 25.901 24.0721 26.7634 24.0721 27.6259C24.0721 28.2562 24.2545 28.4552 24.9014 28.4552C27.2068 28.4552 29.4957 28.4552 31.8011 28.4552C32.0665 28.4552 32.1826 28.5381 32.2821 28.7869C32.7631 29.9977 34.1231 30.5948 35.3339 30.1967C36.5281 29.6991 37.2247 28.4552 36.9261 27.1781ZM2.47727 29.0025C1.81384 29.0025 1.24992 28.4552 1.23333 27.7918C1.21675 27.1117 1.79726 26.5312 2.46069 26.5312C3.12412 26.5312 3.68805 27.0952 3.68805 27.7586C3.68805 28.422 3.12412 29.0025 2.47727 29.0025ZM10.4717 34.5588C10.4717 35.2222 9.92433 35.7861 9.24431 35.7861C8.56429 35.7861 7.98379 35.2222 8.00037 34.5422C8.00037 33.8788 8.56429 33.3314 9.24431 33.3314C9.90775 33.3314 10.4717 33.8954 10.4717 34.5588ZM27.7707 33.3314C28.4342 33.348 28.9815 33.9119 28.9815 34.5754C28.9649 35.2388 28.4176 35.8027 27.7376 35.7861C27.0741 35.7861 26.5102 35.2222 26.5102 34.5588C26.5102 33.8788 27.0741 33.3148 27.7707 33.3314ZM25.8965 12.9142C25.8965 13.3455 25.6477 13.5943 25.2331 13.5943C21.8164 13.5943 18.3831 13.5943 14.9498 13.5777C13.8883 13.5777 12.8269 13.5943 11.7654 13.5943C11.3341 13.5943 11.1019 13.3455 11.1019 12.9142C11.1019 12.1347 11.1019 11.3552 11.1019 10.5756C11.1019 10.1444 11.3341 9.89561 11.7654 9.89561C12.8269 9.89561 13.8883 9.89561 14.9498 9.91219C17.6368 9.91219 20.3071 9.9122 22.994 9.89561C23.7072 9.89561 24.437 9.89561 25.1502 9.89561C25.6643 9.89561 25.8965 10.1278 25.8965 10.642C25.8965 11.4049 25.8965 12.1513 25.8965 12.9142ZM25.8965 17.8402C25.8965 18.2715 25.6477 18.5203 25.2331 18.5203C21.8164 18.5203 18.3831 18.5203 14.9498 18.5037C13.8883 18.5037 12.8269 18.5203 11.7654 18.5203C11.3341 18.5203 11.1019 18.2715 11.1019 17.8402C11.1019 17.0607 11.1019 16.2812 11.1019 15.5016C11.1019 15.0704 11.3341 14.8216 11.7654 14.8216C12.8269 14.8216 13.8883 14.8216 14.9498 14.8382C17.6368 14.8382 20.3071 14.8382 22.994 14.8216C23.7072 14.8216 24.437 14.8216 25.1502 14.8216C25.6643 14.8216 25.8965 15.0538 25.8965 15.568C25.8965 16.3309 25.8965 17.0939 25.8965 17.8402ZM9.85798 10.6751C9.85798 11.4381 9.87457 12.1845 9.85798 12.9474C9.8414 13.4284 10.256 13.843 10.256 14.2245C10.2395 14.606 9.85799 14.9875 9.87457 15.4685C9.87457 16.2812 9.87457 17.0939 9.87457 17.89C9.87457 18.2549 9.99067 18.5866 10.1731 18.9017C10.2395 19.0012 10.4219 19.1008 10.256 19.25C10.0736 19.4159 10.0902 19.8305 9.69212 19.7476C9.60919 19.731 9.50968 19.731 9.42675 19.731C8.16623 19.731 6.88912 19.8471 5.64518 19.4822C2.94168 18.6529 1.15041 16.1319 1.24992 13.3123C1.36603 10.36 3.70463 7.82238 6.62374 7.49066C7.15449 7.42432 7.66865 7.42432 8.1994 7.49066C8.79649 7.57359 8.91259 7.47407 9.19455 6.94332C10.9195 3.75884 13.5732 1.90122 17.1392 1.35389C17.9021 1.23779 18.6651 1.17145 19.428 1.3373C21.0037 1.40365 22.4632 1.91781 23.8067 2.71393C26.278 4.17348 27.8702 6.32965 28.6498 9.0829C28.6664 9.16583 28.6664 9.26535 28.6829 9.34828C28.799 9.54731 28.7825 9.81268 29.0147 9.96195C29.2137 10.0946 29.4127 10.1112 29.6118 10.0615C32.3982 9.29852 35.2841 11.2391 35.7154 14.0918C36.1466 16.8948 34.007 19.7974 30.723 19.7642C30.2752 19.7642 29.8274 19.7476 29.3795 19.7476C28.6664 19.7476 27.9698 19.7642 27.2566 19.7642C26.9414 19.7642 26.6595 19.2169 26.8253 18.9349C27.0244 18.6198 27.1405 18.2715 27.1239 17.8734C27.1239 17.0939 27.1073 16.3143 27.1239 15.5182C27.1239 15.087 27.0409 14.7055 26.7756 14.3572C26.6761 14.2411 26.6761 14.1582 26.7756 14.0255C27.0409 13.6772 27.1239 13.2791 27.1239 12.8313C27.1073 12.1181 27.1073 11.3883 27.1239 10.6751C27.1405 10.1444 27.0078 9.66341 26.6595 9.24876C26.1785 8.78435 25.6146 8.6185 24.9511 8.6185C20.589 8.63508 16.227 8.6185 11.8483 8.6185C10.6209 8.65167 9.85798 9.41462 9.85798 10.6751ZM19.7266 33.2983C19.7432 33.9617 19.1958 34.5422 18.5324 34.5588C17.8524 34.5754 17.2719 34.0115 17.2719 33.3314C17.2719 32.668 17.8192 32.1041 18.4992 32.1041C19.1461 32.0875 19.71 32.6348 19.7266 33.2983ZM14.9498 23.4463C13.8883 23.4463 12.8269 23.4628 11.7654 23.4628C11.3341 23.4628 11.1019 23.2141 11.1019 22.7828C11.1019 22.0033 11.1019 21.2238 11.1019 20.4442C11.1019 20.013 11.3341 19.7642 11.7654 19.7642C12.8269 19.7642 13.8883 19.7642 14.9498 19.7808C17.6368 19.7808 20.3071 19.7808 22.994 19.7642C23.7072 19.7642 24.437 19.7642 25.1502 19.7642C25.6643 19.7642 25.8965 19.9964 25.8965 20.5106C25.8965 21.2735 25.8965 22.0199 25.8965 22.7828C25.8965 23.2141 25.6477 23.4628 25.2331 23.4628C21.7998 23.4463 18.3665 23.4463 14.9498 23.4463ZM34.5212 29.0025C33.8577 29.0025 33.2938 28.4386 33.2938 27.7752C33.2938 27.0952 33.8743 26.5312 34.5543 26.5478C35.2178 26.5644 35.7651 27.1283 35.7651 27.7918C35.7485 28.4552 35.1846 29.0191 34.5212 29.0025ZM24.0721 16.049C23.4252 16.049 23.4252 16.049 23.4252 16.7124C23.4252 17.2929 23.4252 17.2929 24.0057 17.2929C24.6526 17.2929 24.6526 17.2929 24.6526 16.6295C24.6526 16.049 24.6526 16.049 24.0721 16.049ZM24.0223 11.123C23.4252 11.123 23.4252 11.123 23.4252 11.7201C23.4252 12.3669 23.4252 12.3669 24.0555 12.3669C24.6526 12.3669 24.6526 12.3669 24.6526 11.7698C24.6526 11.123 24.6526 11.123 24.0223 11.123ZM24.0555 20.9915C23.4252 20.9915 23.4252 20.9916 23.4252 21.6218C23.4252 22.2189 23.4252 22.2189 24.0223 22.2189C24.6526 22.2189 24.6526 22.2189 24.6526 21.5886C24.6526 20.9916 24.6526 20.9915 24.0555 20.9915ZM21.551 16.049C20.9539 16.049 20.9539 16.049 20.9539 16.6626C20.9539 17.2929 20.9539 17.2929 21.6008 17.2929C22.1979 17.2929 22.1979 17.2929 22.1979 16.6792C22.1979 16.049 22.1979 16.049 21.551 16.049ZM21.551 11.123C20.9539 11.123 20.9539 11.123 20.9539 11.7201C20.9539 12.3503 20.9539 12.3503 21.5842 12.3503C22.1813 12.3503 22.1813 12.3503 22.1813 11.7532C22.1979 11.123 22.1979 11.123 21.551 11.123ZM21.551 20.9915C20.9539 20.9915 20.9539 20.9916 20.9539 21.5886C20.9539 22.2189 20.9539 22.2189 21.5842 22.2189C22.1813 22.2189 22.1813 22.2189 22.1813 21.6218C22.1979 20.9916 22.1979 20.9915 21.551 20.9915ZM19.3783 20.975C17.8524 20.9916 16.3265 20.975 14.8006 20.975C14.2864 20.975 13.7723 20.9915 13.2747 20.9915C12.3127 20.9915 12.3293 20.9916 12.3459 21.9535C12.3459 22.1692 12.4122 22.2355 12.6278 22.2355C13.3576 22.2355 14.0874 22.2355 14.8006 22.2355H14.8172C16.1606 22.2355 17.5041 22.2189 18.8641 22.2189C19.7598 22.2189 19.7432 22.2189 19.7597 21.3399C19.7432 21.0413 19.6602 20.975 19.3783 20.975ZM19.3783 16.049C17.8524 16.0655 16.3265 16.049 14.8006 16.049C14.2864 16.049 13.7723 16.0655 13.2747 16.0655C12.3127 16.0655 12.3293 16.0656 12.3459 17.0275C12.3459 17.2432 12.4122 17.3095 12.6278 17.3095C13.3576 17.3095 14.0874 17.3095 14.8006 17.3095H14.8172C16.1606 17.3095 17.5041 17.2929 18.8641 17.2929C19.7598 17.2929 19.7432 17.2929 19.7597 16.4139C19.7432 16.1153 19.6602 16.049 19.3783 16.049ZM19.3783 11.1064C17.8524 11.123 16.3265 11.1064 14.8006 11.1064C14.2864 11.1064 13.7723 11.123 13.2747 11.123C12.3127 11.123 12.3293 11.123 12.3459 12.0849C12.3459 12.3006 12.4122 12.3669 12.6278 12.3669C13.3576 12.3669 14.0874 12.3669 14.8006 12.3669H14.8172C16.1606 12.3669 17.5041 12.3503 18.8641 12.3503C19.7598 12.3503 19.7432 12.3503 19.7597 11.4713C19.7432 11.1727 19.6602 11.1064 19.3783 11.1064ZM19.3783 11.1064C17.8524 11.123 16.3265 11.1064 14.8006 11.1064C14.2864 11.1064 13.7723 11.123 13.2747 11.123C12.3127 11.123 12.3293 11.123 12.3459 12.0849C12.3459 12.3006 12.4122 12.3669 12.6278 12.3669C13.3576 12.3669 14.0874 12.3669 14.8006 12.3669H14.8172C16.1606 12.3669 17.5041 12.3503 18.8641 12.3503C19.7598 12.3503 19.7432 12.3503 19.7597 11.4713C19.7432 11.1727 19.6602 11.1064 19.3783 11.1064ZM21.551 11.123C20.9539 11.123 20.9539 11.123 20.9539 11.7201C20.9539 12.3503 20.9539 12.3503 21.5842 12.3503C22.1813 12.3503 22.1813 12.3503 22.1813 11.7532C22.1979 11.123 22.1979 11.123 21.551 11.123ZM24.0223 11.123C23.4252 11.123 23.4252 11.123 23.4252 11.7201C23.4252 12.3669 23.4252 12.3669 24.0555 12.3669C24.6526 12.3669 24.6526 12.3669 24.6526 11.7698C24.6526 11.123 24.6526 11.123 24.0223 11.123ZM19.3783 16.049C17.8524 16.0655 16.3265 16.049 14.8006 16.049C14.2864 16.049 13.7723 16.0655 13.2747 16.0655C12.3127 16.0655 12.3293 16.0656 12.3459 17.0275C12.3459 17.2432 12.4122 17.3095 12.6278 17.3095C13.3576 17.3095 14.0874 17.3095 14.8006 17.3095H14.8172C16.1606 17.3095 17.5041 17.2929 18.8641 17.2929C19.7598 17.2929 19.7432 17.2929 19.7597 16.4139C19.7432 16.1153 19.6602 16.049 19.3783 16.049ZM21.551 16.049C20.9539 16.049 20.9539 16.049 20.9539 16.6626C20.9539 17.2929 20.9539 17.2929 21.6008 17.2929C22.1979 17.2929 22.1979 17.2929 22.1979 16.6792C22.1979 16.049 22.1979 16.049 21.551 16.049ZM24.0721 16.049C23.4252 16.049 23.4252 16.049 23.4252 16.7124C23.4252 17.2929 23.4252 17.2929 24.0057 17.2929C24.6526 17.2929 24.6526 17.2929 24.6526 16.6295C24.6526 16.049 24.6526 16.049 24.0721 16.049ZM19.3783 20.975C17.8524 20.9916 16.3265 20.975 14.8006 20.975C14.2864 20.975 13.7723 20.9915 13.2747 20.9915C12.3127 20.9915 12.3293 20.9916 12.3459 21.9535C12.3459 22.1692 12.4122 22.2355 12.6278 22.2355C13.3576 22.2355 14.0874 22.2355 14.8006 22.2355H14.8172C16.1606 22.2355 17.5041 22.2189 18.8641 22.2189C19.7598 22.2189 19.7432 22.2189 19.7597 21.3399C19.7432 21.0413 19.6602 20.975 19.3783 20.975ZM21.551 20.9915C20.9539 20.9915 20.9539 20.9916 20.9539 21.5886C20.9539 22.2189 20.9539 22.2189 21.5842 22.2189C22.1813 22.2189 22.1813 22.2189 22.1813 21.6218C22.1979 20.9916 22.1979 20.9915 21.551 20.9915ZM24.0555 20.9915C23.4252 20.9915 23.4252 20.9916 23.4252 21.6218C23.4252 22.2189 23.4252 22.2189 24.0223 22.2189C24.6526 22.2189 24.6526 22.2189 24.6526 21.5886C24.6526 20.9916 24.6526 20.9915 24.0555 20.9915ZM24.0721 16.049C23.4252 16.049 23.4252 16.049 23.4252 16.7124C23.4252 17.2929 23.4252 17.2929 24.0057 17.2929C24.6526 17.2929 24.6526 17.2929 24.6526 16.6295C24.6526 16.049 24.6526 16.049 24.0721 16.049ZM24.0223 11.123C23.4252 11.123 23.4252 11.123 23.4252 11.7201C23.4252 12.3669 23.4252 12.3669 24.0555 12.3669C24.6526 12.3669 24.6526 12.3669 24.6526 11.7698C24.6526 11.123 24.6526 11.123 24.0223 11.123ZM24.0555 20.9915C23.4252 20.9915 23.4252 20.9916 23.4252 21.6218C23.4252 22.2189 23.4252 22.2189 24.0223 22.2189C24.6526 22.2189 24.6526 22.2189 24.6526 21.5886C24.6526 20.9916 24.6526 20.9915 24.0555 20.9915ZM21.551 16.049C20.9539 16.049 20.9539 16.049 20.9539 16.6626C20.9539 17.2929 20.9539 17.2929 21.6008 17.2929C22.1979 17.2929 22.1979 17.2929 22.1979 16.6792C22.1979 16.049 22.1979 16.049 21.551 16.049ZM21.551 11.123C20.9539 11.123 20.9539 11.123 20.9539 11.7201C20.9539 12.3503 20.9539 12.3503 21.5842 12.3503C22.1813 12.3503 22.1813 12.3503 22.1813 11.7532C22.1979 11.123 22.1979 11.123 21.551 11.123ZM21.551 20.9915C20.9539 20.9915 20.9539 20.9916 20.9539 21.5886C20.9539 22.2189 20.9539 22.2189 21.5842 22.2189C22.1813 22.2189 22.1813 22.2189 22.1813 21.6218C22.1979 20.9916 22.1979 20.9915 21.551 20.9915ZM19.3783 20.975C17.8524 20.9916 16.3265 20.975 14.8006 20.975C14.2864 20.975 13.7723 20.9915 13.2747 20.9915C12.3127 20.9915 12.3293 20.9916 12.3459 21.9535C12.3459 22.1692 12.4122 22.2355 12.6278 22.2355C13.3576 22.2355 14.0874 22.2355 14.8006 22.2355H14.8172C16.1606 22.2355 17.5041 22.2189 18.8641 22.2189C19.7598 22.2189 19.7432 22.2189 19.7597 21.3399C19.7432 21.0413 19.6602 20.975 19.3783 20.975ZM19.3783 16.049C17.8524 16.0655 16.3265 16.049 14.8006 16.049C14.2864 16.049 13.7723 16.0655 13.2747 16.0655C12.3127 16.0655 12.3293 16.0656 12.3459 17.0275C12.3459 17.2432 12.4122 17.3095 12.6278 17.3095C13.3576 17.3095 14.0874 17.3095 14.8006 17.3095H14.8172C16.1606 17.3095 17.5041 17.2929 18.8641 17.2929C19.7598 17.2929 19.7432 17.2929 19.7597 16.4139C19.7432 16.1153 19.6602 16.049 19.3783 16.049ZM19.3783 11.1064C17.8524 11.123 16.3265 11.1064 14.8006 11.1064C14.2864 11.1064 13.7723 11.123 13.2747 11.123C12.3127 11.123 12.3293 11.123 12.3459 12.0849C12.3459 12.3006 12.4122 12.3669 12.6278 12.3669C13.3576 12.3669 14.0874 12.3669 14.8006 12.3669H14.8172C16.1606 12.3669 17.5041 12.3503 18.8641 12.3503C19.7598 12.3503 19.7432 12.3503 19.7597 11.4713C19.7432 11.1727 19.6602 11.1064 19.3783 11.1064ZM19.3783 11.1064C17.8524 11.123 16.3265 11.1064 14.8006 11.1064C14.2864 11.1064 13.7723 11.123 13.2747 11.123C12.3127 11.123 12.3293 11.123 12.3459 12.0849C12.3459 12.3006 12.4122 12.3669 12.6278 12.3669C13.3576 12.3669 14.0874 12.3669 14.8006 12.3669H14.8172C16.1606 12.3669 17.5041 12.3503 18.8641 12.3503C19.7598 12.3503 19.7432 12.3503 19.7597 11.4713C19.7432 11.1727 19.6602 11.1064 19.3783 11.1064ZM21.551 11.123C20.9539 11.123 20.9539 11.123 20.9539 11.7201C20.9539 12.3503 20.9539 12.3503 21.5842 12.3503C22.1813 12.3503 22.1813 12.3503 22.1813 11.7532C22.1979 11.123 22.1979 11.123 21.551 11.123ZM24.0223 11.123C23.4252 11.123 23.4252 11.123 23.4252 11.7201C23.4252 12.3669 23.4252 12.3669 24.0555 12.3669C24.6526 12.3669 24.6526 12.3669 24.6526 11.7698C24.6526 11.123 24.6526 11.123 24.0223 11.123ZM19.3783 16.049C17.8524 16.0655 16.3265 16.049 14.8006 16.049C14.2864 16.049 13.7723 16.0655 13.2747 16.0655C12.3127 16.0655 12.3293 16.0656 12.3459 17.0275C12.3459 17.2432 12.4122 17.3095 12.6278 17.3095C13.3576 17.3095 14.0874 17.3095 14.8006 17.3095H14.8172C16.1606 17.3095 17.5041 17.2929 18.8641 17.2929C19.7598 17.2929 19.7432 17.2929 19.7597 16.4139C19.7432 16.1153 19.6602 16.049 19.3783 16.049ZM21.551 16.049C20.9539 16.049 20.9539 16.049 20.9539 16.6626C20.9539 17.2929 20.9539 17.2929 21.6008 17.2929C22.1979 17.2929 22.1979 17.2929 22.1979 16.6792C22.1979 16.049 22.1979 16.049 21.551 16.049ZM24.0721 16.049C23.4252 16.049 23.4252 16.049 23.4252 16.7124C23.4252 17.2929 23.4252 17.2929 24.0057 17.2929C24.6526 17.2929 24.6526 17.2929 24.6526 16.6295C24.6526 16.049 24.6526 16.049 24.0721 16.049ZM19.3783 20.975C17.8524 20.9916 16.3265 20.975 14.8006 20.975C14.2864 20.975 13.7723 20.9915 13.2747 20.9915C12.3127 20.9915 12.3293 20.9916 12.3459 21.9535C12.3459 22.1692 12.4122 22.2355 12.6278 22.2355C13.3576 22.2355 14.0874 22.2355 14.8006 22.2355H14.8172C16.1606 22.2355 17.5041 22.2189 18.8641 22.2189C19.7598 22.2189 19.7432 22.2189 19.7597 21.3399C19.7432 21.0413 19.6602 20.975 19.3783 20.975ZM21.551 20.9915C20.9539 20.9915 20.9539 20.9916 20.9539 21.5886C20.9539 22.2189 20.9539 22.2189 21.5842 22.2189C22.1813 22.2189 22.1813 22.2189 22.1813 21.6218C22.1979 20.9916 22.1979 20.9915 21.551 20.9915ZM24.0555 20.9915C23.4252 20.9915 23.4252 20.9916 23.4252 21.6218C23.4252 22.2189 23.4252 22.2189 24.0223 22.2189C24.6526 22.2189 24.6526 22.2189 24.6526 21.5886C24.6526 20.9916 24.6526 20.9915 24.0555 20.9915ZM24.0721 16.049C23.4252 16.049 23.4252 16.049 23.4252 16.7124C23.4252 17.2929 23.4252 17.2929 24.0057 17.2929C24.6526 17.2929 24.6526 17.2929 24.6526 16.6295C24.6526 16.049 24.6526 16.049 24.0721 16.049ZM24.0223 11.123C23.4252 11.123 23.4252 11.123 23.4252 11.7201C23.4252 12.3669 23.4252 12.3669 24.0555 12.3669C24.6526 12.3669 24.6526 12.3669 24.6526 11.7698C24.6526 11.123 24.6526 11.123 24.0223 11.123ZM24.0555 20.9915C23.4252 20.9915 23.4252 20.9916 23.4252 21.6218C23.4252 22.2189 23.4252 22.2189 24.0223 22.2189C24.6526 22.2189 24.6526 22.2189 24.6526 21.5886C24.6526 20.9916 24.6526 20.9915 24.0555 20.9915ZM21.551 16.049C20.9539 16.049 20.9539 16.049 20.9539 16.6626C20.9539 17.2929 20.9539 17.2929 21.6008 17.2929C22.1979 17.2929 22.1979 17.2929 22.1979 16.6792C22.1979 16.049 22.1979 16.049 21.551 16.049ZM21.551 11.123C20.9539 11.123 20.9539 11.123 20.9539 11.7201C20.9539 12.3503 20.9539 12.3503 21.5842 12.3503C22.1813 12.3503 22.1813 12.3503 22.1813 11.7532C22.1979 11.123 22.1979 11.123 21.551 11.123ZM21.551 20.9915C20.9539 20.9915 20.9539 20.9916 20.9539 21.5886C20.9539 22.2189 20.9539 22.2189 21.5842 22.2189C22.1813 22.2189 22.1813 22.2189 22.1813 21.6218C22.1979 20.9916 22.1979 20.9915 21.551 20.9915ZM19.3783 20.975C17.8524 20.9916 16.3265 20.975 14.8006 20.975C14.2864 20.975 13.7723 20.9915 13.2747 20.9915C12.3127 20.9915 12.3293 20.9916 12.3459 21.9535C12.3459 22.1692 12.4122 22.2355 12.6278 22.2355C13.3576 22.2355 14.0874 22.2355 14.8006 22.2355H14.8172C16.1606 22.2355 17.5041 22.2189 18.8641 22.2189C19.7598 22.2189 19.7432 22.2189 19.7597 21.3399C19.7432 21.0413 19.6602 20.975 19.3783 20.975ZM19.3783 16.049C17.8524 16.0655 16.3265 16.049 14.8006 16.049C14.2864 16.049 13.7723 16.0655 13.2747 16.0655C12.3127 16.0655 12.3293 16.0656 12.3459 17.0275C12.3459 17.2432 12.4122 17.3095 12.6278 17.3095C13.3576 17.3095 14.0874 17.3095 14.8006 17.3095H14.8172C16.1606 17.3095 17.5041 17.2929 18.8641 17.2929C19.7598 17.2929 19.7432 17.2929 19.7597 16.4139C19.7432 16.1153 19.6602 16.049 19.3783 16.049ZM19.3783 11.1064C17.8524 11.123 16.3265 11.1064 14.8006 11.1064C14.2864 11.1064 13.7723 11.123 13.2747 11.123C12.3127 11.123 12.3293 11.123 12.3459 12.0849C12.3459 12.3006 12.4122 12.3669 12.6278 12.3669C13.3576 12.3669 14.0874 12.3669 14.8006 12.3669H14.8172C16.1606 12.3669 17.5041 12.3503 18.8641 12.3503C19.7598 12.3503 19.7432 12.3503 19.7597 11.4713C19.7432 11.1727 19.6602 11.1064 19.3783 11.1064ZM19.3783 11.1064C17.8524 11.123 16.3265 11.1064 14.8006 11.1064C14.2864 11.1064 13.7723 11.123 13.2747 11.123C12.3127 11.123 12.3293 11.123 12.3459 12.0849C12.3459 12.3006 12.4122 12.3669 12.6278 12.3669C13.3576 12.3669 14.0874 12.3669 14.8006 12.3669H14.8172C16.1606 12.3669 17.5041 12.3503 18.8641 12.3503C19.7598 12.3503 19.7432 12.3503 19.7597 11.4713C19.7432 11.1727 19.6602 11.1064 19.3783 11.1064ZM21.551 11.123C20.9539 11.123 20.9539 11.123 20.9539 11.7201C20.9539 12.3503 20.9539 12.3503 21.5842 12.3503C22.1813 12.3503 22.1813 12.3503 22.1813 11.7532C22.1979 11.123 22.1979 11.123 21.551 11.123ZM24.0223 11.123C23.4252 11.123 23.4252 11.123 23.4252 11.7201C23.4252 12.3669 23.4252 12.3669 24.0555 12.3669C24.6526 12.3669 24.6526 12.3669 24.6526 11.7698C24.6526 11.123 24.6526 11.123 24.0223 11.123ZM19.3783 16.049C17.8524 16.0655 16.3265 16.049 14.8006 16.049C14.2864 16.049 13.7723 16.0655 13.2747 16.0655C12.3127 16.0655 12.3293 16.0656 12.3459 17.0275C12.3459 17.2432 12.4122 17.3095 12.6278 17.3095C13.3576 17.3095 14.0874 17.3095 14.8006 17.3095H14.8172C16.1606 17.3095 17.5041 17.2929 18.8641 17.2929C19.7598 17.2929 19.7432 17.2929 19.7597 16.4139C19.7432 16.1153 19.6602 16.049 19.3783 16.049ZM21.551 16.049C20.9539 16.049 20.9539 16.049 20.9539 16.6626C20.9539 17.2929 20.9539 17.2929 21.6008 17.2929C22.1979 17.2929 22.1979 17.2929 22.1979 16.6792C22.1979 16.049 22.1979 16.049 21.551 16.049ZM24.0721 16.049C23.4252 16.049 23.4252 16.049 23.4252 16.7124C23.4252 17.2929 23.4252 17.2929 24.0057 17.2929C24.6526 17.2929 24.6526 17.2929 24.6526 16.6295C24.6526 16.049 24.6526 16.049 24.0721 16.049ZM19.3783 20.975C17.8524 20.9916 16.3265 20.975 14.8006 20.975C14.2864 20.975 13.7723 20.9915 13.2747 20.9915C12.3127 20.9915 12.3293 20.9916 12.3459 21.9535C12.3459 22.1692 12.4122 22.2355 12.6278 22.2355C13.3576 22.2355 14.0874 22.2355 14.8006 22.2355H14.8172C16.1606 22.2355 17.5041 22.2189 18.8641 22.2189C19.7598 22.2189 19.7432 22.2189 19.7597 21.3399C19.7432 21.0413 19.6602 20.975 19.3783 20.975ZM21.551 20.9915C20.9539 20.9915 20.9539 20.9916 20.9539 21.5886C20.9539 22.2189 20.9539 22.2189 21.5842 22.2189C22.1813 22.2189 22.1813 22.2189 22.1813 21.6218C22.1979 20.9916 22.1979 20.9915 21.551 20.9915ZM24.0555 20.9915C23.4252 20.9915 23.4252 20.9916 23.4252 21.6218C23.4252 22.2189 23.4252 22.2189 24.0223 22.2189C24.6526 22.2189 24.6526 22.2189 24.6526 21.5886C24.6526 20.9916 24.6526 20.9915 24.0555 20.9915ZM24.0721 16.049C23.4252 16.049 23.4252 16.049 23.4252 16.7124C23.4252 17.2929 23.4252 17.2929 24.0057 17.2929C24.6526 17.2929 24.6526 17.2929 24.6526 16.6295C24.6526 16.049 24.6526 16.049 24.0721 16.049ZM24.0223 11.123C23.4252 11.123 23.4252 11.123 23.4252 11.7201C23.4252 12.3669 23.4252 12.3669 24.0555 12.3669C24.6526 12.3669 24.6526 12.3669 24.6526 11.7698C24.6526 11.123 24.6526 11.123 24.0223 11.123ZM24.0555 20.9915C23.4252 20.9915 23.4252 20.9916 23.4252 21.6218C23.4252 22.2189 23.4252 22.2189 24.0223 22.2189C24.6526 22.2189 24.6526 22.2189 24.6526 21.5886C24.6526 20.9916 24.6526 20.9915 24.0555 20.9915ZM21.551 16.049C20.9539 16.049 20.9539 16.049 20.9539 16.6626C20.9539 17.2929 20.9539 17.2929 21.6008 17.2929C22.1979 17.2929 22.1979 17.2929 22.1979 16.6792C22.1979 16.049 22.1979 16.049 21.551 16.049ZM21.551 11.123C20.9539 11.123 20.9539 11.123 20.9539 11.7201C20.9539 12.3503 20.9539 12.3503 21.5842 12.3503C22.1813 12.3503 22.1813 12.3503 22.1813 11.7532C22.1979 11.123 22.1979 11.123 21.551 11.123ZM21.551 20.9915C20.9539 20.9915 20.9539 20.9916 20.9539 21.5886C20.9539 22.2189 20.9539 22.2189 21.5842 22.2189C22.1813 22.2189 22.1813 22.2189 22.1813 21.6218C22.1979 20.9916 22.1979 20.9915 21.551 20.9915ZM19.3783 20.975C17.8524 20.9916 16.3265 20.975 14.8006 20.975C14.2864 20.975 13.7723 20.9915 13.2747 20.9915C12.3127 20.9915 12.3293 20.9916 12.3459 21.9535C12.3459 22.1692 12.4122 22.2355 12.6278 22.2355C13.3576 22.2355 14.0874 22.2355 14.8006 22.2355H14.8172C16.1606 22.2355 17.5041 22.2189 18.8641 22.2189C19.7598 22.2189 19.7432 22.2189 19.7597 21.3399C19.7432 21.0413 19.6602 20.975 19.3783 20.975ZM19.3783 16.049C17.8524 16.0655 16.3265 16.049 14.8006 16.049C14.2864 16.049 13.7723 16.0655 13.2747 16.0655C12.3127 16.0655 12.3293 16.0656 12.3459 17.0275C12.3459 17.2432 12.4122 17.3095 12.6278 17.3095C13.3576 17.3095 14.0874 17.3095 14.8006 17.3095H14.8172C16.1606 17.3095 17.5041 17.2929 18.8641 17.2929C19.7598 17.2929 19.7432 17.2929 19.7597 16.4139C19.7432 16.1153 19.6602 16.049 19.3783 16.049ZM19.3783 11.1064C17.8524 11.123 16.3265 11.1064 14.8006 11.1064C14.2864 11.1064 13.7723 11.123 13.2747 11.123C12.3127 11.123 12.3293 11.123 12.3459 12.0849C12.3459 12.3006 12.4122 12.3669 12.6278 12.3669C13.3576 12.3669 14.0874 12.3669 14.8006 12.3669H14.8172C16.1606 12.3669 17.5041 12.3503 18.8641 12.3503C19.7598 12.3503 19.7432 12.3503 19.7597 11.4713C19.7432 11.1727 19.6602 11.1064 19.3783 11.1064ZM19.3783 11.1064C17.8524 11.123 16.3265 11.1064 14.8006 11.1064C14.2864 11.1064 13.7723 11.123 13.2747 11.123C12.3127 11.123 12.3293 11.123 12.3459 12.0849C12.3459 12.3006 12.4122 12.3669 12.6278 12.3669C13.3576 12.3669 14.0874 12.3669 14.8006 12.3669H14.8172C16.1606 12.3669 17.5041 12.3503 18.8641 12.3503C19.7598 12.3503 19.7432 12.3503 19.7597 11.4713C19.7432 11.1727 19.6602 11.1064 19.3783 11.1064ZM21.551 11.123C20.9539 11.123 20.9539 11.123 20.9539 11.7201C20.9539 12.3503 20.9539 12.3503 21.5842 12.3503C22.1813 12.3503 22.1813 12.3503 22.1813 11.7532C22.1979 11.123 22.1979 11.123 21.551 11.123ZM24.0223 11.123C23.4252 11.123 23.4252 11.123 23.4252 11.7201C23.4252 12.3669 23.4252 12.3669 24.0555 12.3669C24.6526 12.3669 24.6526 12.3669 24.6526 11.7698C24.6526 11.123 24.6526 11.123 24.0223 11.123ZM19.3783 16.049C17.8524 16.0655 16.3265 16.049 14.8006 16.049C14.2864 16.049 13.7723 16.0655 13.2747 16.0655C12.3127 16.0655 12.3293 16.0656 12.3459 17.0275C12.3459 17.2432 12.4122 17.3095 12.6278 17.3095C13.3576 17.3095 14.0874 17.3095 14.8006 17.3095H14.8172C16.1606 17.3095 17.5041 17.2929 18.8641 17.2929C19.7598 17.2929 19.7432 17.2929 19.7597 16.4139C19.7432 16.1153 19.6602 16.049 19.3783 16.049ZM21.551 16.049C20.9539 16.049 20.9539 16.049 20.9539 16.6626C20.9539 17.2929 20.9539 17.2929 21.6008 17.2929C22.1979 17.2929 22.1979 17.2929 22.1979 16.6792C22.1979 16.049 22.1979 16.049 21.551 16.049ZM24.0721 16.049C23.4252 16.049 23.4252 16.049 23.4252 16.7124C23.4252 17.2929 23.4252 17.2929 24.0057 17.2929C24.6526 17.2929 24.6526 17.2929 24.6526 16.6295C24.6526 16.049 24.6526 16.049 24.0721 16.049ZM19.3783 20.975C17.8524 20.9916 16.3265 20.975 14.8006 20.975C14.2864 20.975 13.7723 20.9915 13.2747 20.9915C12.3127 20.9915 12.3293 20.9916 12.3459 21.9535C12.3459 22.1692 12.4122 22.2355 12.6278 22.2355C13.3576 22.2355 14.0874 22.2355 14.8006 22.2355H14.8172C16.1606 22.2355 17.5041 22.2189 18.8641 22.2189C19.7598 22.2189 19.7432 22.2189 19.7597 21.3399C19.7432 21.0413 19.6602 20.975 19.3783 20.975ZM21.551 20.9915C20.9539 20.9915 20.9539 20.9916 20.9539 21.5886C20.9539 22.2189 20.9539 22.2189 21.5842 22.2189C22.1813 22.2189 22.1813 22.2189 22.1813 21.6218C22.1979 20.9916 22.1979 20.9915 21.551 20.9915ZM24.0555 20.9915C23.4252 20.9915 23.4252 20.9916 23.4252 21.6218C23.4252 22.2189 23.4252 22.2189 24.0223 22.2189C24.6526 22.2189 24.6526 22.2189 24.6526 21.5886C24.6526 20.9916 24.6526 20.9915 24.0555 20.9915ZM24.0721 16.049C23.4252 16.049 23.4252 16.049 23.4252 16.7124C23.4252 17.2929 23.4252 17.2929 24.0057 17.2929C24.6526 17.2929 24.6526 17.2929 24.6526 16.6295C24.6526 16.049 24.6526 16.049 24.0721 16.049ZM24.0223 11.123C23.4252 11.123 23.4252 11.123 23.4252 11.7201C23.4252 12.3669 23.4252 12.3669 24.0555 12.3669C24.6526 12.3669 24.6526 12.3669 24.6526 11.7698C24.6526 11.123 24.6526 11.123 24.0223 11.123ZM24.0555 20.9915C23.4252 20.9915 23.4252 20.9916 23.4252 21.6218C23.4252 22.2189 23.4252 22.2189 24.0223 22.2189C24.6526 22.2189 24.6526 22.2189 24.6526 21.5886C24.6526 20.9916 24.6526 20.9915 24.0555 20.9915ZM21.551 16.049C20.9539 16.049 20.9539 16.049 20.9539 16.6626C20.9539 17.2929 20.9539 17.2929 21.6008 17.2929C22.1979 17.2929 22.1979 17.2929 22.1979 16.6792C22.1979 16.049 22.1979 16.049 21.551 16.049ZM21.551 11.123C20.9539 11.123 20.9539 11.123 20.9539 11.7201C20.9539 12.3503 20.9539 12.3503 21.5842 12.3503C22.1813 12.3503 22.1813 12.3503 22.1813 11.7532C22.1979 11.123 22.1979 11.123 21.551 11.123ZM21.551 20.9915C20.9539 20.9915 20.9539 20.9916 20.9539 21.5886C20.9539 22.2189 20.9539 22.2189 21.5842 22.2189C22.1813 22.2189 22.1813 22.2189 22.1813 21.6218C22.1979 20.9916 22.1979 20.9915 21.551 20.9915ZM19.3783 16.049C17.8524 16.0655 16.3265 16.049 14.8006 16.049C14.2864 16.049 13.7723 16.0655 13.2747 16.0655C12.3127 16.0655 12.3293 16.0656 12.3459 17.0275C12.3459 17.2432 12.4122 17.3095 12.6278 17.3095C13.3576 17.3095 14.0874 17.3095 14.8006 17.3095H14.8172C16.1606 17.3095 17.5041 17.2929 18.8641 17.2929C19.7598 17.2929 19.7432 17.2929 19.7597 16.4139C19.7432 16.1153 19.6602 16.049 19.3783 16.049ZM19.3783 11.1064C17.8524 11.123 16.3265 11.1064 14.8006 11.1064C14.2864 11.1064 13.7723 11.123 13.2747 11.123C12.3127 11.123 12.3293 11.123 12.3459 12.0849C12.3459 12.3006 12.4122 12.3669 12.6278 12.3669C13.3576 12.3669 14.0874 12.3669 14.8006 12.3669H14.8172C16.1606 12.3669 17.5041 12.3503 18.8641 12.3503C19.7598 12.3503 19.7432 12.3503 19.7597 11.4713C19.7432 11.1727 19.6602 11.1064 19.3783 11.1064ZM19.3783 20.975C17.8524 20.9916 16.3265 20.975 14.8006 20.975C14.2864 20.975 13.7723 20.9915 13.2747 20.9915C12.3127 20.9915 12.3293 20.9916 12.3459 21.9535C12.3459 22.1692 12.4122 22.2355 12.6278 22.2355C13.3576 22.2355 14.0874 22.2355 14.8006 22.2355H14.8172C16.1606 22.2355 17.5041 22.2189 18.8641 22.2189C19.7598 22.2189 19.7432 22.2189 19.7597 21.3399C19.7432 21.0413 19.6602 20.975 19.3783 20.975ZM19.3783 16.049C17.8524 16.0655 16.3265 16.049 14.8006 16.049C14.2864 16.049 13.7723 16.0655 13.2747 16.0655C12.3127 16.0655 12.3293 16.0656 12.3459 17.0275C12.3459 17.2432 12.4122 17.3095 12.6278 17.3095C13.3576 17.3095 14.0874 17.3095 14.8006 17.3095H14.8172C16.1606 17.3095 17.5041 17.2929 18.8641 17.2929C19.7598 17.2929 19.7432 17.2929 19.7597 16.4139C19.7432 16.1153 19.6602 16.049 19.3783 16.049ZM21.551 16.049C20.9539 16.049 20.9539 16.049 20.9539 16.6626C20.9539 17.2929 20.9539 17.2929 21.6008 17.2929C22.1979 17.2929 22.1979 17.2929 22.1979 16.6792C22.1979 16.049 22.1979 16.049 21.551 16.049ZM24.0721 16.049C23.4252 16.049 23.4252 16.049 23.4252 16.7124C23.4252 17.2929 23.4252 17.2929 24.0057 17.2929C24.6526 17.2929 24.6526 17.2929 24.6526 16.6295C24.6526 16.049 24.6526 16.049 24.0721 16.049ZM19.3783 11.1064C17.8524 11.123 16.3265 11.1064 14.8006 11.1064C14.2864 11.1064 13.7723 11.123 13.2747 11.123C12.3127 11.123 12.3293 11.123 12.3459 12.0849C12.3459 12.3006 12.4122 12.3669 12.6278 12.3669C13.3576 12.3669 14.0874 12.3669 14.8006 12.3669H14.8172C16.1606 12.3669 17.5041 12.3503 18.8641 12.3503C19.7598 12.3503 19.7432 12.3503 19.7597 11.4713C19.7432 11.1727 19.6602 11.1064 19.3783 11.1064ZM21.551 11.123C20.9539 11.123 20.9539 11.123 20.9539 11.7201C20.9539 12.3503 20.9539 12.3503 21.5842 12.3503C22.1813 12.3503 22.1813 12.3503 22.1813 11.7532C22.1979 11.123 22.1979 11.123 21.551 11.123ZM24.0223 11.123C23.4252 11.123 23.4252 11.123 23.4252 11.7201C23.4252 12.3669 23.4252 12.3669 24.0555 12.3669C24.6526 12.3669 24.6526 12.3669 24.6526 11.7698C24.6526 11.123 24.6526 11.123 24.0223 11.123ZM24.0721 16.049C23.4252 16.049 23.4252 16.049 23.4252 16.7124C23.4252 17.2929 23.4252 17.2929 24.0057 17.2929C24.6526 17.2929 24.6526 17.2929 24.6526 16.6295C24.6526 16.049 24.6526 16.049 24.0721 16.049ZM24.0223 11.123C23.4252 11.123 23.4252 11.123 23.4252 11.7201C23.4252 12.3669 23.4252 12.3669 24.0555 12.3669C24.6526 12.3669 24.6526 12.3669 24.6526 11.7698C24.6526 11.123 24.6526 11.123 24.0223 11.123ZM21.551 16.049C20.9539 16.049 20.9539 16.049 20.9539 16.6626C20.9539 17.2929 20.9539 17.2929 21.6008 17.2929C22.1979 17.2929 22.1979 17.2929 22.1979 16.6792C22.1979 16.049 22.1979 16.049 21.551 16.049ZM21.551 11.123C20.9539 11.123 20.9539 11.123 20.9539 11.7201C20.9539 12.3503 20.9539 12.3503 21.5842 12.3503C22.1813 12.3503 22.1813 12.3503 22.1813 11.7532C22.1979 11.123 22.1979 11.123 21.551 11.123ZM19.3783 11.1064C17.8524 11.123 16.3265 11.1064 14.8006 11.1064C14.2864 11.1064 13.7723 11.123 13.2747 11.123C12.3127 11.123 12.3293 11.123 12.3459 12.0849C12.3459 12.3006 12.4122 12.3669 12.6278 12.3669C13.3576 12.3669 14.0874 12.3669 14.8006 12.3669H14.8172C16.1606 12.3669 17.5041 12.3503 18.8641 12.3503C19.7598 12.3503 19.7432 12.3503 19.7597 11.4713C19.7432 11.1727 19.6602 11.1064 19.3783 11.1064ZM19.3783 16.049C17.8524 16.0655 16.3265 16.049 14.8006 16.049C14.2864 16.049 13.7723 16.0655 13.2747 16.0655C12.3127 16.0655 12.3293 16.0656 12.3459 17.0275C12.3459 17.2432 12.4122 17.3095 12.6278 17.3095C13.3576 17.3095 14.0874 17.3095 14.8006 17.3095H14.8172C16.1606 17.3095 17.5041 17.2929 18.8641 17.2929C19.7598 17.2929 19.7432 17.2929 19.7597 16.4139C19.7432 16.1153 19.6602 16.049 19.3783 16.049ZM19.3783 11.1064C17.8524 11.123 16.3265 11.1064 14.8006 11.1064C14.2864 11.1064 13.7723 11.123 13.2747 11.123C12.3127 11.123 12.3293 11.123 12.3459 12.0849C12.3459 12.3006 12.4122 12.3669 12.6278 12.3669C13.3576 12.3669 14.0874 12.3669 14.8006 12.3669H14.8172C16.1606 12.3669 17.5041 12.3503 18.8641 12.3503C19.7598 12.3503 19.7432 12.3503 19.7597 11.4713C19.7432 11.1727 19.6602 11.1064 19.3783 11.1064ZM21.551 11.123C20.9539 11.123 20.9539 11.123 20.9539 11.7201C20.9539 12.3503 20.9539 12.3503 21.5842 12.3503C22.1813 12.3503 22.1813 12.3503 22.1813 11.7532C22.1979 11.123 22.1979 11.123 21.551 11.123ZM24.0223 11.123C23.4252 11.123 23.4252 11.123 23.4252 11.7201C23.4252 12.3669 23.4252 12.3669 24.0555 12.3669C24.6526 12.3669 24.6526 12.3669 24.6526 11.7698C24.6526 11.123 24.6526 11.123 24.0223 11.123ZM24.0223 11.123C23.4252 11.123 23.4252 11.123 23.4252 11.7201C23.4252 12.3669 23.4252 12.3669 24.0555 12.3669C24.6526 12.3669 24.6526 12.3669 24.6526 11.7698C24.6526 11.123 24.6526 11.123 24.0223 11.123ZM21.551 11.123C20.9539 11.123 20.9539 11.123 20.9539 11.7201C20.9539 12.3503 20.9539 12.3503 21.5842 12.3503C22.1813 12.3503 22.1813 12.3503 22.1813 11.7532C22.1979 11.123 22.1979 11.123 21.551 11.123ZM19.3783 11.1064C17.8524 11.123 16.3265 11.1064 14.8006 11.1064C14.2864 11.1064 13.7723 11.123 13.2747 11.123C12.3127 11.123 12.3293 11.123 12.3459 12.0849C12.3459 12.3006 12.4122 12.3669 12.6278 12.3669C13.3576 12.3669 14.0874 12.3669 14.8006 12.3669H14.8172C16.1606 12.3669 17.5041 12.3503 18.8641 12.3503C19.7598 12.3503 19.7432 12.3503 19.7597 11.4713C19.7432 11.1727 19.6602 11.1064 19.3783 11.1064Z" fill="#FDB515"/>
<path d="M9.65905 19.6814C9.57612 19.6648 9.4766 19.6648 9.39367 19.6648C9.14883 19.6648 8.90336 19.6691 8.65763 19.6735C7.63827 19.6917 6.61441 19.71 5.61209 19.416C2.9086 18.5867 1.11732 16.0656 1.21684 13.246L9.65905 19.6814ZM9.65905 19.6814L9.55707 20.1708C9.74063 20.2091 9.93725 20.2007 10.1202 20.1055C10.2941 20.015 10.3941 19.8774 10.4506 19.7831C10.4887 19.7196 10.5308 19.6307 10.5511 19.5877C10.5558 19.5777 10.5594 19.5701 10.5615 19.566C10.5682 19.5525 10.5731 19.5434 10.5763 19.5379C10.6635 19.4545 10.7552 19.3304 10.7828 19.1606C10.8131 18.9742 10.7513 18.8248 10.6987 18.7361C10.6531 18.6591 10.5963 18.5982 10.5735 18.5737L10.5706 18.5705C10.5638 18.5633 10.5587 18.5577 10.5548 18.5535C10.4145 18.3027 10.3415 18.0668 10.3415 17.8237V17.8191V17.8144V17.8097V17.8051V17.8004V17.7957V17.7911V17.7864V17.7817V17.7771V17.7724V17.7677V17.7631V17.7584V17.7537V17.7491V17.7444V17.7397V17.735V17.7304V17.7257V17.721V17.7164V17.7117V17.707V17.7023V17.6977V17.693V17.6883V17.6836V17.679V17.6743V17.6696V17.6649V17.6602V17.6556V17.6509V17.6462V17.6415V17.6369V17.6322V17.6275V17.6228V17.6181V17.6135V17.6088V17.6041V17.5994V17.5947V17.59V17.5854V17.5807V17.576V17.5713V17.5666V17.5619V17.5573V17.5526V17.5479V17.5432V17.5385V17.5338V17.5291V17.5244V17.5198V17.5151V17.5104V17.5057V17.501V17.4963V17.4916V17.4869V17.4822V17.4776V17.4729V17.4682V17.4635V17.4588V17.4541V17.4494V17.4447V17.44V17.4353V17.4306V17.4259V17.4212V17.4165V17.4119V17.4072V17.4025V17.3978V17.3931V17.3884V17.3837V17.379V17.3743V17.3696V17.3649V17.3602V17.3555V17.3508V17.3461V17.3414V17.3367V17.332V17.3273V17.3226V17.3179V17.3132V17.3085V17.3038V17.2991V17.2944V17.2897V17.285V17.2803V17.2756V17.2709V17.2662V17.2614V17.2567V17.252V17.2473V17.2426V17.2379V17.2332V17.2285V17.2238V17.2191V17.2144V17.2097V17.205V17.2003V17.1955V17.1908V17.1861V17.1814V17.1767V17.172V17.1673V17.1626V17.1579V17.1532V17.1484V17.1437V17.139V17.1343V17.1296V17.1249V17.1202V17.1155V17.1107V17.106V17.1013V17.0966V17.0919V17.0872V17.0825V17.0777V17.073V17.0683V17.0636V17.0589V17.0542V17.0494V17.0447V17.04V17.0353V17.0306V17.0258V17.0211V17.0164V17.0117V17.007V17.0023V16.9975V16.9928V16.9881V16.9834V16.9787V16.9739V16.9692V16.9645V16.9598V16.955V16.9503V16.9456V16.9409V16.9362V16.9314V16.9267V16.922V16.9173V16.9125V16.9078V16.9031V16.8984V16.8936V16.8889V16.8842V16.8795V16.8747V16.87V16.8653V16.8605V16.8558V16.8511V16.8464V16.8416V16.8369V16.8322V16.8275V16.8227V16.818V16.8133V16.8085V16.8038V16.7991V16.7943V16.7896V16.7849V16.7802V16.7754V16.7707V16.766V16.7612V16.7565V16.7518V16.747V16.7423V16.7376V16.7328V16.7281V16.7234V16.7186V16.7139V16.7092V16.7044V16.6997V16.695V16.6902V16.6855V16.6808V16.676V16.6713V16.6666V16.6618V16.6571V16.6524V16.6476V16.6429V16.6381V16.6334V16.6287V16.6239V16.6192V16.6145V16.6097V16.605V16.6002V16.5955V16.5908V16.586V16.5813V16.5765V16.5718V16.5671V16.5623V16.5576V16.5528V16.5481V16.5434V16.5386V16.5339V16.5291V16.5244V16.5197V16.5149V16.5102V16.5054V16.5007V16.4959V16.4912V16.4865V16.4817V16.477V16.4722V16.4675V16.4627V16.458V16.4533V16.4485V16.4438V16.439V16.4343V16.4295V16.4248V16.4201V16.4153V16.4106V16.4058V16.4011V16.3963V16.3916V16.3868V16.3821V16.3773V16.3726V16.3678V16.3631V16.3584V16.3536V16.3489V16.3441V16.3394V16.3346V16.3299V16.3251V16.3204V16.3156V16.3109V16.3061V16.3014V16.2966V16.2919V16.2871V16.2824V16.2776V16.2729V16.2681V16.2634V16.2586V16.2539V16.2491V16.2444V16.2396V16.2349V16.2301V16.2254V16.2206V16.2159V16.2111V16.2064V16.2016V16.1969V16.1921V16.1874V16.1826V16.1779V16.1731V16.1684V16.1636V16.1589V16.1541V16.1494V16.1446V16.1398V16.1351V16.1303V16.1256V16.1208V16.1161V16.1113V16.1066V16.1018V16.0971V16.0923V16.0876V16.0828V16.078V16.0733V16.0685V16.0638V16.059V16.0543V16.0495V16.0448V16.04V16.0353V16.0305V16.0257V16.021V16.0162V16.0115V16.0067V16.002V15.9972V15.9924V15.9877V15.9829V15.9782V15.9734V15.9687V15.9639V15.9592V15.9544V15.9496V15.9449V15.9401V15.9354V15.9306V15.9259V15.9211V15.9163V15.9116V15.9068V15.9021V15.8973V15.8925V15.8878V15.883V15.8783V15.8735V15.8688V15.864V15.8592V15.8545V15.8497V15.845V15.8402V15.8354V15.8307V15.8259V15.8212V15.8164V15.8117V15.8069V15.8021V15.7974V15.7926V15.7879V15.7831V15.7783V15.7736V15.7688V15.7641V15.7593V15.7545V15.7498V15.745V15.7403V15.7355V15.7307V15.726V15.7212V15.7165V15.7117V15.7069V15.7022V15.6974V15.6927V15.6879V15.6831V15.6784V15.6736V15.6689V15.6641V15.6593V15.6546V15.6498V15.645V15.6403V15.6355V15.6308V15.626V15.6212V15.6165V15.6117V15.607V15.6022V15.5974V15.5927V15.5879V15.5831V15.5784V15.5736V15.5689V15.5641V15.5593V15.5546V15.5498V15.5451V15.5403V15.5355V15.5308V15.526V15.5212V15.5165V15.5117V15.507V15.5022V15.4974V15.4927V15.4879V15.4832V15.4784V15.4736V15.4689V15.4641V15.4593V15.4546V15.4498V15.4451V15.4403V15.4355V15.4308V15.426V15.4213V15.4165V15.4117V15.407V15.4022V15.3936L10.3412 15.385C10.3375 15.2766 10.377 15.1587 10.4724 14.9554C10.4804 14.9384 10.4894 14.9197 10.4992 14.8995C10.5794 14.7332 10.7102 14.4621 10.7225 14.18L10.723 14.1691V14.1583C10.723 13.9753 10.6738 13.8121 10.6249 13.6854C10.584 13.5794 10.5315 13.471 10.489 13.3831C10.4818 13.3683 10.4749 13.3541 10.4684 13.3405C10.3629 13.121 10.3211 13.0007 10.3246 12.8984L10.3246 12.8984L10.3248 12.892C10.336 12.377 10.3322 11.8633 10.3285 11.3557C10.3267 11.1051 10.3249 10.856 10.3249 10.6089C10.3249 10.09 10.482 9.72597 10.7154 9.49252C10.9489 9.25907 11.3129 9.102 11.8318 9.102C13.2912 9.102 14.7494 9.10384 16.2068 9.10569C19.119 9.10937 22.0278 9.11305 24.9355 9.102C25.4947 9.10214 25.916 9.23505 26.2766 9.57377C26.5204 9.87382 26.6208 10.2221 26.6076 10.643L26.6075 10.647C26.5908 11.3659 26.5907 12.1014 26.6074 12.8204C26.6067 13.2026 26.5359 13.4769 26.3613 13.706L26.3591 13.709C26.2891 13.8023 26.1844 13.9649 26.1844 14.1811C26.1844 14.3976 26.288 14.5563 26.3681 14.6526C26.5405 14.8832 26.6068 15.142 26.6074 15.4968C26.5963 16.033 26.6001 16.5677 26.6038 17.0917C26.6056 17.3497 26.6074 17.6052 26.6074 17.8569V17.8673L26.6078 17.8777C26.6195 18.1574 26.5406 18.4067 26.3861 18.6514L26.3819 18.6581L26.3779 18.6649C26.1681 19.0216 26.2762 19.4297 26.4001 19.6688C26.4704 19.8044 26.5702 19.9388 26.7 20.0449C26.8286 20.15 27.0135 20.2477 27.2401 20.2477C27.5997 20.2477 27.9548 20.2435 28.3064 20.2394L28.3074 20.2394C28.6604 20.2352 29.0099 20.2311 29.3631 20.2311C29.5816 20.2311 29.8008 20.2352 30.0255 20.2393L30.0278 20.2394C30.249 20.2435 30.4755 20.2477 30.7028 20.2477C34.3208 20.3002 36.6667 17.0802 36.1765 13.9499C35.7018 10.8134 32.5351 8.67153 29.4531 9.5112C29.4071 9.52225 29.3753 9.52247 29.3523 9.5191C29.3303 9.5159 29.3007 9.50732 29.26 9.48035C29.2566 9.47376 29.2508 9.46107 29.2429 9.43879C29.2365 9.42111 29.23 9.4011 29.2215 9.37418C29.2201 9.36974 29.2186 9.36495 29.2171 9.35989C29.21 9.3374 29.2013 9.30959 29.1924 9.28277C29.1782 9.2404 29.1595 9.18782 29.1337 9.131C29.133 9.12321 29.1322 9.1143 29.1312 9.10406L29.1306 9.09705C29.1269 9.05622 29.1207 8.98701 29.107 8.91858L29.1031 8.89933L29.0978 8.88043C28.2853 6.01082 26.6162 3.74601 24.0285 2.21753C22.6412 1.3954 21.1162 0.851243 19.4584 0.773381C18.618 0.599164 17.7956 0.676948 17.0309 0.793321L17.0302 0.793419C13.3102 1.3644 10.5216 3.31633 8.72183 6.63893L8.72181 6.63892L8.71991 6.64249C8.6503 6.77354 8.60392 6.85257 8.56602 6.90491C8.54913 6.92824 8.53778 6.94071 8.53176 6.94668C8.51185 6.95009 8.43724 6.95723 8.2351 6.92915L8.23511 6.92911L8.22834 6.92826C7.65733 6.85689 7.10237 6.85677 6.53142 6.92792C3.36549 7.28912 0.842872 10.0313 0.717219 13.2264L0.717148 13.2284C0.609664 16.2738 2.54546 18.9983 5.46546 19.894L5.46545 19.894L5.47135 19.8958C6.55462 20.2135 7.67454 20.1926 8.69876 20.1735C8.93608 20.1691 9.16827 20.1648 9.39367 20.1648C9.48891 20.1648 9.53591 20.1666 9.561 20.1716L9.65905 19.6814ZM29.2635 9.4864C29.2635 9.48654 29.263 9.48589 29.262 9.48411C29.263 9.4854 29.2635 9.48626 29.2635 9.4864Z" fill="#FDB515" stroke="#FDB515"/>
<path d="M19.7267 11.4713C19.7102 12.3504 19.7268 12.3504 18.8311 12.3504C17.4877 12.3504 16.1442 12.3504 14.7842 12.367H14.7676C14.7676 12.367 14.7676 12.367 14.7676 12.3504C14.7676 12.3338 14.7842 12.3172 14.7842 12.3006C14.9666 12.2011 15.1491 12.2177 15.3481 12.2177C16.5754 12.2177 17.8194 12.2177 19.0467 12.2177C19.5277 12.2177 19.7765 11.7865 19.5443 11.3718C19.4448 11.1894 19.2458 11.2391 19.0965 11.2391C17.8525 11.2391 16.6086 11.2391 15.3647 11.2391C15.1656 11.2391 14.9832 11.2557 14.8008 11.1562C14.7842 11.1396 14.7842 11.123 14.7842 11.1064C16.3101 11.1064 17.836 11.123 19.3619 11.1064C19.6604 11.1064 19.7433 11.1728 19.7267 11.4713Z" fill="#FDB515"/>
<path d="M22.1981 11.7533C22.1981 12.3504 22.1981 12.3504 21.601 12.3504C20.9707 12.3504 20.9707 12.3504 20.9707 11.7201C20.9707 11.123 20.9707 11.123 21.5678 11.123C22.1981 11.123 22.1981 11.123 22.1981 11.7533Z" fill="#FDB515"/>
<path d="M24.6522 11.7533C24.6522 12.3504 24.6522 12.3504 24.0551 12.3504C23.4248 12.3504 23.4248 12.3504 23.4248 11.7035C23.4248 11.1064 23.4248 11.1064 24.0219 11.1064C24.6522 11.123 24.6522 11.123 24.6522 11.7533Z" fill="#FDB515"/>
<path d="M19.7267 16.3974C19.7102 17.2764 19.7268 17.2764 18.8311 17.2764C17.4877 17.2764 16.1442 17.2764 14.7842 17.293H14.7676C14.7676 17.293 14.7676 17.293 14.7676 17.2764C14.7676 17.2598 14.7842 17.2432 14.7842 17.2266C14.9666 17.1271 15.1491 17.1437 15.3481 17.1437C16.5754 17.1437 17.8194 17.1437 19.0467 17.1437C19.5277 17.1437 19.7765 16.7125 19.5443 16.2978C19.4448 16.1154 19.2458 16.1652 19.0965 16.1652C17.8525 16.1652 16.6086 16.1652 15.3647 16.1652C15.1656 16.1652 14.9832 16.1817 14.8008 16.0822C14.7842 16.0656 14.7842 16.0491 14.7842 16.0325C16.3101 16.0325 17.836 16.0491 19.3619 16.0325C19.6604 16.0491 19.7433 16.1154 19.7267 16.3974Z" fill="#FDB515"/>
<path d="M22.198 16.6791C22.198 17.2928 22.198 17.2928 21.601 17.2928C20.9541 17.2928 20.9541 17.2928 20.9541 16.6625C20.9541 16.0488 20.9541 16.0488 21.5512 16.0488C22.198 16.0488 22.198 16.0488 22.198 16.6791Z" fill="#FDB515"/>
<path d="M24.6522 16.6293C24.6522 17.2928 24.6522 17.2928 24.0053 17.2928C23.4248 17.2928 23.4248 17.2928 23.4248 16.7123C23.4248 16.0488 23.4248 16.0488 24.0716 16.0488C24.6522 16.0488 24.6522 16.0488 24.6522 16.6293Z" fill="#FDB515"/>
<path d="M19.7267 21.34C19.7102 22.219 19.7268 22.219 18.8311 22.219C17.4877 22.219 16.1442 22.219 14.7842 22.2356H14.7676C14.7676 22.2356 14.7676 22.2356 14.7676 22.219C14.7676 22.2025 14.7842 22.1859 14.7842 22.1693C14.9666 22.0698 15.1491 22.0864 15.3481 22.0864C16.5754 22.0864 17.8194 22.0864 19.0467 22.0864C19.5277 22.0864 19.7765 21.6551 19.5443 21.2405C19.4448 21.058 19.2458 21.1078 19.0965 21.1078C17.8525 21.1078 16.6086 21.1078 15.3647 21.1078C15.1656 21.1078 14.9832 21.1244 14.8008 21.0249C14.7842 21.0083 14.7842 20.9917 14.7842 20.9751C16.3101 20.9751 17.836 20.9917 19.3619 20.9751C19.6604 20.9751 19.7433 21.0414 19.7267 21.34Z" fill="#FDB515"/>
<path d="M22.1981 21.622C22.1981 22.2191 22.1981 22.2191 21.601 22.2191C20.9707 22.2191 20.9707 22.2191 20.9707 21.5888C20.9707 20.9917 20.9707 20.9917 21.5678 20.9917C22.1981 20.9917 22.1981 20.9917 22.1981 21.622Z" fill="#FDB515"/>
<path d="M24.6522 21.5888C24.6522 22.2191 24.6522 22.2191 24.0219 22.2191C23.4248 22.2191 23.4248 22.2191 23.4248 21.622C23.4248 20.9917 23.4248 20.9917 24.0551 20.9917C24.6522 20.9917 24.6522 20.9917 24.6522 21.5888Z" fill="#FDB515"/>
<path d="M14.7835 12.3504C14.7835 12.367 14.7835 12.367 14.7835 12.3504C14.0538 12.3504 13.324 12.3504 12.5942 12.3504C12.3786 12.3504 12.3122 12.3006 12.3122 12.0684C12.2957 11.1064 12.2957 11.1064 13.2411 11.1064C13.7552 11.1064 14.2694 11.1064 14.767 11.0898C14.6343 11.2391 14.4352 11.2059 14.2694 11.2059C13.7884 11.2059 13.2908 11.2059 12.8098 11.2059C12.4449 11.2059 12.4283 11.2723 12.4283 11.7035C12.4283 12.1348 12.4615 12.1845 12.8098 12.2011C13.2908 12.2177 13.7884 12.2011 14.2694 12.2011C14.4518 12.2343 14.6508 12.2177 14.7835 12.3504Z" fill="#FDB515"/>
<path d="M14.7835 17.293C14.0538 17.293 13.324 17.293 12.5942 17.293C12.3786 17.293 12.3122 17.2432 12.3122 17.011C12.2957 16.0491 12.2957 16.0491 13.2411 16.0491C13.7552 16.0491 14.2694 16.0491 14.767 16.0325C14.6343 16.1817 14.4352 16.1486 14.2694 16.1486C13.7884 16.1486 13.2908 16.1486 12.8098 16.1486C12.4449 16.1486 12.4283 16.2149 12.4283 16.6461C12.4283 17.0774 12.4615 17.1271 12.8098 17.1437C13.2908 17.1603 13.7884 17.1437 14.2694 17.1437C14.4518 17.1769 14.6508 17.1437 14.7835 17.293Z" fill="#FDB515"/>
<path d="M14.7835 22.2188C14.7835 22.2354 14.7835 22.2354 14.7835 22.2188C14.0538 22.2188 13.324 22.2188 12.5942 22.2188C12.3786 22.2188 12.3122 22.169 12.3122 21.9368C12.2957 20.9748 12.2957 20.9748 13.2411 20.9748C13.7552 20.9748 14.2694 20.9748 14.767 20.9583C14.6343 21.1075 14.4352 21.0743 14.2694 21.0743C13.7884 21.0743 13.2908 21.0743 12.8098 21.0743C12.4449 21.0743 12.4283 21.1407 12.4283 21.5719C12.4283 22.0032 12.4615 22.0529 12.8098 22.0695C13.2908 22.0861 13.7884 22.0695 14.2694 22.0695C14.4518 22.1027 14.6508 22.0861 14.7835 22.2188Z" fill="#FDB515"/>
<path d="M19.7261 11.4713C19.7095 12.3504 19.7261 12.3504 18.8305 12.3504C17.487 12.3504 16.1436 12.3504 14.7835 12.367H14.767C14.0372 12.367 13.3074 12.3504 12.5942 12.367C12.3786 12.367 12.3122 12.3172 12.3122 12.085C12.2957 11.123 12.2957 11.123 13.2411 11.123C13.7552 11.123 14.2694 11.123 14.767 11.1064C16.2929 11.1064 17.8187 11.123 19.3446 11.1064C19.6598 11.1064 19.7427 11.1728 19.7261 11.4713Z" fill="#FDB515"/>
<path d="M22.1981 11.7533C22.1981 12.3504 22.1981 12.3504 21.601 12.3504C20.9707 12.3504 20.9707 12.3504 20.9707 11.7201C20.9707 11.123 20.9707 11.123 21.5678 11.123C22.1981 11.123 22.1981 11.123 22.1981 11.7533Z" fill="#FDB515"/>
<path d="M24.6522 11.7533C24.6522 12.3504 24.6522 12.3504 24.0551 12.3504C23.4248 12.3504 23.4248 12.3504 23.4248 11.7035C23.4248 11.1064 23.4248 11.1064 24.0219 11.1064C24.6522 11.123 24.6522 11.123 24.6522 11.7533Z" fill="#FDB515"/>
<path d="M19.7261 16.3974C19.7095 17.2764 19.7261 17.2764 18.8305 17.2764C17.487 17.2764 16.1436 17.2764 14.7835 17.293H14.767C14.0372 17.293 13.3074 17.2764 12.5942 17.293C12.3786 17.293 12.3122 17.2432 12.3122 17.011C12.2957 16.0491 12.2957 16.0491 13.2411 16.0491C13.7552 16.0491 14.2694 16.0491 14.767 16.0325C16.2929 16.0325 17.8187 16.0491 19.3446 16.0325C19.6598 16.0491 19.7427 16.1154 19.7261 16.3974Z" fill="#FDB515"/>
<path d="M22.198 16.6791C22.198 17.2928 22.198 17.2928 21.601 17.2928C20.9541 17.2928 20.9541 17.2928 20.9541 16.6625C20.9541 16.0488 20.9541 16.0488 21.5512 16.0488C22.198 16.0488 22.198 16.0488 22.198 16.6791Z" fill="#FDB515"/>
<path d="M24.6522 16.6293C24.6522 17.2928 24.6522 17.2928 24.0053 17.2928C23.4248 17.2928 23.4248 17.2928 23.4248 16.7123C23.4248 16.0488 23.4248 16.0488 24.0716 16.0488C24.6522 16.0488 24.6522 16.0488 24.6522 16.6293Z" fill="#FDB515"/>
<path d="M19.7261 21.34C19.7095 22.219 19.7261 22.219 18.8305 22.219C17.487 22.219 16.1436 22.219 14.7835 22.2356H14.767C14.0372 22.2356 13.3074 22.219 12.5942 22.2356C12.3786 22.2356 12.3122 22.1859 12.3122 21.9537C12.2957 20.9917 12.2957 20.9917 13.2411 20.9917C13.7552 20.9917 14.2694 20.9917 14.767 20.9751C16.2929 20.9751 17.8187 20.9917 19.3446 20.9751C19.6598 20.9751 19.7427 21.0414 19.7261 21.34Z" fill="#FDB515"/>
<path d="M22.1981 21.622C22.1981 22.2191 22.1981 22.2191 21.601 22.2191C20.9707 22.2191 20.9707 22.2191 20.9707 21.5888C20.9707 20.9917 20.9707 20.9917 21.5678 20.9917C22.1981 20.9917 22.1981 20.9917 22.1981 21.622Z" fill="#FDB515"/>
<path d="M24.6522 21.5888C24.6522 22.2191 24.6522 22.2191 24.0219 22.2191C23.4248 22.2191 23.4248 22.2191 23.4248 21.622C23.4248 20.9917 23.4248 20.9917 24.0551 20.9917C24.6522 20.9917 24.6522 20.9917 24.6522 21.5888Z" fill="#FDB515"/>
</svg>
