<svg width="41" height="24" viewBox="0 0 41 24" fill="none" xmlns="http://www.w3.org/2000/svg">
<path d="M0.0320198 10.8197C0.17075 10.1688 0.245453 9.50713 0.448212 8.87751C1.85685 4.5342 4.80219 1.84497 9.32691 1.15133C15.0789 0.265589 20.4573 4.12868 21.5245 9.8166C21.7059 10.777 21.6952 11.7802 21.7913 12.7619C22.1114 16.3156 24.9073 19.421 28.4183 20.1146C33.0497 21.0324 37.393 18.2151 38.4282 13.5943C39.474 8.90953 36.1658 4.17137 31.3743 3.52041C29.987 3.32832 28.6424 3.4457 27.3191 3.92592C27.2444 3.94727 27.191 4.00062 27.095 4.05398C27.2444 4.09667 27.3618 4.12869 27.4685 4.17137C28.0875 4.37413 28.461 4.96107 28.3436 5.55867C28.2155 6.19896 27.6499 6.61515 26.9776 6.50843C26.2093 6.3697 25.4409 6.16694 24.6832 5.9962C24.3204 5.91083 23.9576 5.83613 23.5947 5.72941C22.9865 5.55867 22.6236 5.11047 22.6877 4.49152C22.8264 3.28564 22.9865 2.09042 23.1892 0.895213C23.2853 0.308279 23.9042 -0.0652225 24.4805 0.00947813C25.0994 0.0841788 25.5476 0.585735 25.5476 1.20468C25.5476 1.48214 25.4943 1.74894 25.4729 2.01572C26.252 1.77028 26.9776 1.49281 27.746 1.3114C33.8181 -0.0972423 39.8155 3.91525 40.8506 10.062C40.8933 10.3182 40.9573 10.5743 41 10.8411C41 11.5347 41 12.2284 41 12.922C40.8826 13.509 40.8079 14.1066 40.6372 14.6721C39.2605 19.1328 36.2939 21.8648 31.6624 22.6011C25.9211 23.5082 20.3933 19.4423 19.4755 13.7224C19.3261 12.8153 19.3261 11.8976 19.2408 10.9798C18.9313 7.43686 16.1247 4.33144 12.6137 3.62712C7.80089 2.66668 3.30818 5.74008 2.52916 10.617C1.82484 15.0243 4.73816 19.1969 9.10281 20.1253C10.6609 20.4561 12.1976 20.3601 13.7022 19.8158C13.7663 19.7945 13.8303 19.7518 13.937 19.6878C13.7769 19.6344 13.6595 19.6131 13.5528 19.5704C12.9125 19.3676 12.539 18.7593 12.6778 18.1511C12.8272 17.5215 13.4034 17.1159 14.0651 17.244C14.9401 17.4041 15.8045 17.6388 16.6689 17.8309C16.925 17.895 17.1918 17.9483 17.4373 18.023C18.0242 18.2044 18.3764 18.642 18.3123 19.2396C18.227 20.1253 18.0776 21.011 17.9602 21.8861C17.9282 22.1529 17.8855 22.409 17.8428 22.6758C17.7254 23.3588 17.1812 23.7963 16.5195 23.7323C15.8579 23.6576 15.4097 23.1133 15.4524 22.4197C15.463 22.1849 15.5057 21.9501 15.5377 21.7367C14.716 21.9928 13.9477 22.2809 13.1473 22.4624C7.20329 23.8283 1.13118 19.7305 0.160073 13.7224C0.117387 13.4449 0.0533576 13.1781 0 12.9007C0.0320146 12.207 0.0320198 11.5134 0.0320198 10.8197Z" fill="#FDB515"/>
<path d="M14.6189 9.98746C15.8461 10.1048 16.3584 10.489 16.3264 11.2467C16.305 12.0044 15.7928 12.3672 14.6616 12.4312C14.3841 12.7834 14.3735 13.0609 14.7363 13.4023C15.2272 13.8612 15.1845 14.6189 14.7043 15.0884C14.2454 15.5366 13.5518 15.526 13.0395 15.0991C12.8795 14.9604 12.8048 14.6723 12.4633 14.811C12.1645 14.9284 12.0791 15.0884 12.0791 15.3979C12.0791 16.0169 11.7269 16.4757 11.1934 16.6358C10.7025 16.7745 10.1262 16.5825 9.88077 16.1236C9.75271 15.8888 9.67801 15.6007 9.67801 15.3339C9.66734 15.0564 9.56062 14.9497 9.33651 14.8323C9.0804 14.7043 8.97369 14.843 8.83496 14.9817C8.08795 15.7074 7.05282 15.5153 6.74334 14.5976C6.58327 14.1067 6.71132 13.6691 7.08483 13.3276C7.29826 13.1356 7.35162 12.9648 7.23423 12.6767C7.12751 12.3885 6.93543 12.4312 6.73267 12.4312C5.97499 12.4206 5.4094 11.9083 5.42007 11.2254C5.43074 10.5317 5.97499 10.0408 6.74334 10.0301C6.95677 10.0301 7.12751 10.0408 7.23423 9.76335C7.34094 9.49656 7.29825 9.33649 7.09549 9.14441C6.54058 8.60016 6.51924 7.86382 7.0208 7.37293C7.52236 6.87137 8.23735 6.91405 8.80294 7.44763C8.94167 7.57569 9.02705 7.75711 9.29384 7.62905C9.53928 7.51166 9.65666 7.40495 9.65666 7.10615C9.65666 6.29511 10.1582 5.7722 10.8839 5.78288C11.5775 5.79355 12.0684 6.31645 12.0791 7.10615C12.0791 7.36226 12.1431 7.50099 12.3992 7.61838C12.666 7.73577 12.7834 7.60771 12.9328 7.45831C13.4984 6.90339 14.2027 6.87137 14.715 7.36226C15.2165 7.85315 15.2165 8.61083 14.6509 9.13374C14.2774 9.46455 14.5442 9.69933 14.6189 9.98746ZM12.3886 11.2147C12.3886 10.3716 11.7163 9.68865 10.8732 9.68865C10.0302 9.68865 9.35786 10.361 9.35786 11.2147C9.35786 12.0684 10.0302 12.7407 10.8732 12.7407C11.7163 12.7407 12.3886 12.0684 12.3886 11.2147Z" fill="#FDB515"/>
<path d="M26.4006 13.6263C25.2587 13.5729 24.7251 13.1887 24.7145 12.431C24.6931 11.6627 25.248 11.2572 26.3792 11.2038C26.6353 10.8623 26.6887 10.5849 26.3152 10.2327C25.8136 9.77384 25.8563 9.01616 26.3365 8.55728C26.8061 8.09841 27.5104 8.10907 28.0333 8.56795C28.1827 8.69601 28.2574 8.97347 28.5775 8.84541C28.8657 8.72803 28.9831 8.58929 28.9724 8.26915C28.9617 7.67154 29.2712 7.24468 29.7728 7.06327C30.221 6.90319 30.7652 6.98857 31.0427 7.38341C31.2348 7.6502 31.3308 8.00236 31.3842 8.33318C31.4162 8.5893 31.4802 8.71735 31.7256 8.83474C31.9711 8.95212 32.0885 8.84541 32.2272 8.69601C32.8141 8.11975 33.5185 8.07706 34.0307 8.58929C34.5323 9.09086 34.5109 9.83786 33.924 10.3928C33.5611 10.7343 33.8813 10.9584 33.9346 11.2465C34.1161 11.2465 34.2761 11.2465 34.4362 11.2465C35.1085 11.2572 35.6421 11.7908 35.6421 12.4417C35.6421 13.082 35.1085 13.6263 34.4469 13.6476C34.2014 13.6583 33.924 13.5516 33.8066 13.9357C33.7319 14.1705 33.7319 14.3199 33.924 14.4906C34.3188 14.8321 34.4896 15.2697 34.3295 15.7819C34.0627 16.689 32.9956 16.9344 32.2806 16.2514C32.1205 16.102 32.0138 15.8993 31.715 16.0487C31.4802 16.1661 31.3842 16.2728 31.3842 16.5503C31.3842 17.3613 30.8826 17.8949 30.1676 17.8842C29.474 17.8842 28.9724 17.3506 28.9724 16.5716C28.9724 16.2941 28.887 16.1554 28.6202 16.038C28.3321 15.91 28.2361 16.102 28.0973 16.2408C27.6598 16.657 27.1582 16.7637 26.678 16.5289C26.2085 16.3048 25.931 15.8459 26.0057 15.323C26.0377 15.0883 26.1551 14.8321 26.3045 14.64C26.6247 14.1598 26.646 14.1705 26.4006 13.6263ZM31.683 12.4097C31.683 11.556 31.0107 10.8943 30.1676 10.8943C29.3246 10.8943 28.6523 11.5773 28.6629 12.4204C28.6629 13.2634 29.3459 13.9464 30.1783 13.9357C31.0107 13.9357 31.683 13.2527 31.683 12.4097Z" fill="#FDB515"/>
</svg>
