<svg width="33" height="41" viewBox="0 0 33 41" fill="none" xmlns="http://www.w3.org/2000/svg">
<path d="M6.6 30.234C6.6 31.1562 7.3425 31.9107 8.25 31.9107H9.9V37.7791C9.9 39.1708 11.0055 40.2942 12.375 40.2942C13.7445 40.2942 14.85 39.1708 14.85 37.7791V31.9107H18.15V37.7791C18.15 39.1708 19.2555 40.2942 20.625 40.2942C21.9945 40.2942 23.1 39.1708 23.1 37.7791V31.9107H24.75C25.6575 31.9107 26.4 31.1562 26.4 30.234V13.467H6.6V30.234ZM2.475 13.467C1.1055 13.467 0 14.5904 0 15.9821V27.7189C0 29.1106 1.1055 30.234 2.475 30.234C3.8445 30.234 4.95 29.1106 4.95 27.7189V15.9821C4.95 14.5904 3.8445 13.467 2.475 13.467ZM30.525 13.467C29.1555 13.467 28.05 14.5904 28.05 15.9821V27.7189C28.05 29.1106 29.1555 30.234 30.525 30.234C31.8945 30.234 33 29.1106 33 27.7189V15.9821C33 14.5904 31.8945 13.467 30.525 13.467ZM22.3245 3.67513L24.4695 1.49542C24.7995 1.16009 24.7995 0.64031 24.4695 0.304971C24.1395 -0.030368 23.628 -0.030368 23.298 0.304971L20.856 2.78648C19.5525 2.1158 18.0675 1.73016 16.5 1.73016C14.916 1.73016 13.431 2.1158 12.111 2.78648L9.6525 0.304971C9.3225 -0.030368 8.811 -0.030368 8.481 0.304971C8.151 0.64031 8.151 1.16009 8.481 1.49542L10.6425 3.6919C8.2005 5.51949 6.6 8.45371 6.6 11.7903H26.4C26.4 8.45371 24.7995 5.50273 22.3245 3.67513ZM13.2 8.43694H11.55V6.76025H13.2V8.43694ZM21.45 8.43694H19.8V6.76025H21.45V8.43694Z" fill="#FDB515"/>
</svg>
